{
  "source": "C:\\Users\\Peter\\Desktop\\stuff\\MIUN\\quantitative_research\\video_compression\\videos\\BVI-HD\\BVI-HD_CDVL_videos\\ORIG\\CalmingWater_1920x1080_60fps.mp4",
  "output": "C:\\Users\\Peter\\Desktop\\stuff\\MIUN\\quantitative_research\\video_compression\\compressed_videos\\BVI-HD\\hevc\\1.5\\CalmingWater_1920x1080_60fps_hevc.mp4",
  "codec": "hevc",
  "ok": "Input #0, mov,mp4,m4a,3gp,3g2,mj2, from 'C:\\Users\\Peter\\Desktop\\stuff\\MIUN\\quantitative_research\\video_compression\\videos\\BVI-HD\\BVI-HD_CDVL_videos\\ORIG\\CalmingWater_1920x1080_60fps.mp4':\n  Metadata:\n    major_brand     : isom\n    minor_version   : 512\n    compatible_brands: isomiso2avc1mp41\n    encoder         : Lavf54.28.101\n  Duration: 00:00:05.00, start: 0.000000, bitrate: 623787 kb/s\n  Stream #0:0[0x1](und): Video: h264 (High 4:4:4 Predictive) (avc1 / 0x31637661), yuv420p(progressive), 1920x1080, 623782 kb/s, 60 fps, 60 tbr, 60 tbn (default)\n    Metadata:\n      handler_name    : VideoHandler\n      vendor_id       : [0][0][0][0]\n[out#0/mp4 @ 000001b6cfadab40] Codec AVOption b:a (set bitrate (in bits/s)) has not been used for any stream. The most likely reason is either wrong type (e.g. a video option with no video streams) or that it is a private option of some decoder which was not actually used for any stream.\nStream mapping:\n  Stream #0:0 -> #0:0 (h264 (native) -> hevc (libx265))\nPress [q] to stop, [?] for help\n[libx265 @ 000001b6d06a04c0] Unknown option: \"aq-mode.\nx265 [info]: HEVC encoder version 4.1+190-8f11c33ac\nx265 [info]: build info [Windows][GCC 15.1.0][64 bit] 10bit\nx265 [info]: using cpu capabilities: MMX2 SSE2Fast LZCNT SSSE3 SSE4.2 AVX FMA3 BMI2 AVX2\nx265 [info]: Main 10 profile, Level-4.1 (Main tier)\nx265 [info]: Thread pool created using 12 threads\nx265 [info]: Slices                              : 1\nx265 [info]: frame threads / pool features       : 3 / wpp(17 rows)\nx265 [info]: Coding QT: max CU size, min CU size : 64 / 8\nx265 [info]: Residual QT: max TU size, max depth : 32 / 1 inter / 1 intra\nx265 [info]: ME / range / subpel / merge         : star / 57 / 3 / 3\nx265 [info]: Keyframe min / max / scenecut / bias  : 25 / 250 / 40 / 5.00 \nx265 [info]: Lookahead / bframes / badapt        : 25 / 4 / 2\nx265 [info]: b-pyramid / weightp / weightb       : 1 / 1 / 0\nx265 [info]: References / ref-limit  cu / depth  : 4 / on / on\nx265 [info]: AQ: mode / str / qg-size / cu-tree  : 2 / 1.0 / 32 / 1\nx265 [info]: Rate Control / qCompress            : ABR-1500 kbps / 0.60\nx265 [info]: VBV/HRD buffer / max-rate / init    : 1500 / 1500 / 0.750\nx265 [info]: tools: rect limit-modes rd=4 psy-rd=2.00 rdoq=2 psy-rdoq=1.00\nx265 [info]: tools: rskip mode=1 signhide tmvp strong-intra-smoothing lslices=4\nx265 [info]: tools: deblock sao dhdr10-info\nOutput #0, mp4, to 'C:\\Users\\Peter\\Desktop\\stuff\\MIUN\\quantitative_research\\video_compression\\compressed_videos\\BVI-HD\\hevc\\1.5\\CalmingWater_1920x1080_60fps_hevc.mp4':\n  Metadata:\n    major_brand     : isom\n    minor_version   : 512\n    compatible_brands: isomiso2avc1mp41\n    encoder         : Lavf62.3.100\n  Stream #0:0(und): Video: hevc (hev1 / 0x31766568), yuv420p10le(tv, progressive), 1920x1080, q=2-31, 1500 kb/s, 60 fps, 15360 tbn (default)\n    Metadata:\n      encoder         : Lavc62.11.100 libx265\n      handler_name    : VideoHandler\n      vendor_id       : [0][0][0][0]\n    Side data:\n      cpb: bitrate max/min/avg: 1500000/0/1500000 buffer size: 1500000 vbv_delay: N/A\nframe=    0 fps=0.0 q=0.0 size=       0KiB time=N/A bitrate=N/A speed=N/A elapsed=0:00:01.02    \nframe=    0 fps=0.0 q=0.0 size=       0KiB time=N/A bitrate=N/A speed=N/A elapsed=0:00:01.59    \nframe=    0 fps=0.0 q=0.0 size=       0KiB time=N/A bitrate=N/A speed=N/A elapsed=0:00:02.12    \nframe=    0 fps=0.0 q=0.0 size=       0KiB time=N/A bitrate=N/A speed=N/A elapsed=0:00:02.63    \nframe=    0 fps=0.0 q=0.0 size=       0KiB time=N/A bitrate=N/A speed=N/A elapsed=0:00:03.17    \nframe=    0 fps=0.0 q=0.0 size=       0KiB time=N/A bitrate=N/A speed=N/A elapsed=0:00:03.68    \nframe=    0 fps=0.0 q=0.0 size=       0KiB time=N/A bitrate=N/A speed=N/A elapsed=0:00:04.21    \nframe=    0 fps=0.0 q=0.0 size=       0KiB time=N/A bitrate=N/A speed=N/A elapsed=0:00:04.74    \nframe=    0 fps=0.0 q=0.0 size=       0KiB time=N/A bitrate=N/A speed=N/A elapsed=0:00:05.27    \nframe=    0 fps=0.0 q=0.0 size=       0KiB time=N/A bitrate=N/A speed=N/A elapsed=0:00:05.81    \nframe=    0 fps=0.0 q=0.0 size=       0KiB time=N/A bitrate=N/A speed=N/A elapsed=0:00:06.31    \nframe=    0 fps=0.0 q=0.0 size=       0KiB time=N/A bitrate=N/A speed=N/A elapsed=0:00:06.84    \nframe=    0 fps=0.0 q=0.0 size=       0KiB time=N/A bitrate=N/A speed=N/A elapsed=0:00:07.36    \nframe=    0 fps=0.0 q=0.0 size=       0KiB time=N/A bitrate=N/A speed=N/A elapsed=0:00:07.89    \nframe=    0 fps=0.0 q=0.0 size=       0KiB time=N/A bitrate=N/A speed=N/A elapsed=0:00:08.45    \nframe=    0 fps=0.0 q=0.0 size=       0KiB time=N/A bitrate=N/A speed=N/A elapsed=0:00:08.98    \nframe=    0 fps=0.0 q=0.0 size=       0KiB time=N/A bitrate=N/A speed=N/A elapsed=0:00:09.53    \nframe=    0 fps=0.0 q=0.0 size=       0KiB time=N/A bitrate=N/A speed=N/A elapsed=0:00:10.03    \nframe=    0 fps=0.0 q=0.0 size=       0KiB time=N/A bitrate=N/A speed=N/A elapsed=0:00:10.56    \nframe=    1 fps=0.1 q=50.6 size=       0KiB time=-00:00:00.01 bitrate=N/A speed=N/A elapsed=0:00:11.09    \nframe=    1 fps=0.1 q=50.6 size=       0KiB time=-00:00:00.01 bitrate=N/A speed=N/A elapsed=0:00:11.62    \nframe=    1 fps=0.1 q=50.6 size=       0KiB time=-00:00:00.01 bitrate=N/A speed=N/A elapsed=0:00:12.16    \nframe=    2 fps=0.2 q=51.0 size=       0KiB time=00:00:00.00 bitrate=N/A speed=   0x elapsed=0:00:12.71    \nframe=    2 fps=0.2 q=51.0 size=       0KiB time=00:00:00.00 bitrate=N/A speed=   0x elapsed=0:00:13.24    \nframe=    2 fps=0.1 q=51.0 size=       0KiB time=00:00:00.00 bitrate=N/A speed=   0x elapsed=0:00:13.78    \nframe=    3 fps=0.2 q=51.0 size=       0KiB time=00:00:00.01 bitrate=  21.1kbits/s speed=0.00116x elapsed=0:00:14.32    \nframe=    3 fps=0.2 q=51.0 size=       0KiB time=00:00:00.01 bitrate=  21.1kbits/s speed=0.00112x elapsed=0:00:14.85    \nframe=    4 fps=0.3 q=51.0 size=       0KiB time=00:00:00.03 bitrate=  10.6kbits/s speed=0.00217x elapsed=0:00:15.39    \nframe=    4 fps=0.3 q=51.0 size=       0KiB time=00:00:00.03 bitrate=  10.6kbits/s speed=0.00209x elapsed=0:00:15.92    \nframe=    4 fps=0.2 q=51.0 size=       0KiB time=00:00:00.03 bitrate=  10.6kbits/s speed=0.00203x elapsed=0:00:16.44    \nframe=    5 fps=0.3 q=51.0 size=       0KiB time=00:00:00.05 bitrate=   7.0kbits/s speed=0.00295x elapsed=0:00:16.94    \nframe=    5 fps=0.3 q=51.0 size=       0KiB time=00:00:00.05 bitrate=   7.0kbits/s speed=0.00286x elapsed=0:00:17.46    \nframe=    5 fps=0.3 q=51.0 size=       0KiB time=00:00:00.05 bitrate=   7.0kbits/s speed=0.00278x elapsed=0:00:17.99    \nframe=    5 fps=0.3 q=51.0 size=       0KiB time=00:00:00.05 bitrate=   7.0kbits/s speed=0.0027x elapsed=0:00:18.55    \nframe=    5 fps=0.3 q=51.0 size=       0KiB time=00:00:00.05 bitrate=   7.0kbits/s speed=0.00262x elapsed=0:00:19.09    \nframe=    5 fps=0.3 q=51.0 size=       0KiB time=00:00:00.05 bitrate=   7.0kbits/s speed=0.00255x elapsed=0:00:19.61    \nframe=    6 fps=0.3 q=51.0 size=       0KiB time=00:00:00.06 bitrate=   5.3kbits/s speed=0.00331x elapsed=0:00:20.16    \nframe=    6 fps=0.3 q=51.0 size=       0KiB time=00:00:00.06 bitrate=   5.3kbits/s speed=0.00322x elapsed=0:00:20.68    \nframe=    7 fps=0.3 q=51.0 size=       0KiB time=00:00:00.08 bitrate=   4.2kbits/s speed=0.00392x elapsed=0:00:21.24    \nframe=    8 fps=0.4 q=51.0 size=       0KiB time=00:00:00.10 bitrate=   3.5kbits/s speed=0.0046x elapsed=0:00:21.76    \nframe=    8 fps=0.4 q=51.0 size=       0KiB time=00:00:00.10 bitrate=   3.5kbits/s speed=0.00448x elapsed=0:00:22.33    \nframe=    9 fps=0.4 q=51.0 size=       0KiB time=00:00:00.11 bitrate=   3.0kbits/s speed=0.0051x elapsed=0:00:22.87    \nframe=    9 fps=0.4 q=51.0 size=       0KiB time=00:00:00.11 bitrate=   3.0kbits/s speed=0.00498x elapsed=0:00:23.42    \nframe=    9 fps=0.4 q=51.0 size=       0KiB time=00:00:00.11 bitrate=   3.0kbits/s speed=0.00487x elapsed=0:00:23.97    \nframe=   10 fps=0.4 q=51.0 size=       0KiB time=00:00:00.13 bitrate=   2.6kbits/s speed=0.00545x elapsed=0:00:24.48    \nframe=   10 fps=0.4 q=51.0 size=       0KiB time=00:00:00.13 bitrate=   2.6kbits/s speed=0.00533x elapsed=0:00:25.03    \nframe=   10 fps=0.4 q=51.0 size=       0KiB time=00:00:00.13 bitrate=   2.6kbits/s speed=0.00521x elapsed=0:00:25.58    \nframe=   10 fps=0.4 q=51.0 size=       0KiB time=00:00:00.13 bitrate=   2.6kbits/s speed=0.0051x elapsed=0:00:26.12    \nframe=   11 fps=0.4 q=51.0 size=       0KiB time=00:00:00.15 bitrate=   2.3kbits/s speed=0.00563x elapsed=0:00:26.63    \nframe=   12 fps=0.4 q=51.0 size=       0KiB time=00:00:00.16 bitrate=   2.1kbits/s speed=0.00614x elapsed=0:00:27.15    \nframe=   12 fps=0.4 q=51.0 size=       0KiB time=00:00:00.16 bitrate=   2.1kbits/s speed=0.00602x elapsed=0:00:27.69    \nframe=   13 fps=0.5 q=51.0 size=       0KiB time=00:00:00.18 bitrate=   1.9kbits/s speed=0.0065x elapsed=0:00:28.21    \nframe=   13 fps=0.5 q=51.0 size=       0KiB time=00:00:00.18 bitrate=   1.9kbits/s speed=0.00637x elapsed=0:00:28.75    \nframe=   14 fps=0.5 q=51.0 size=       0KiB time=00:00:00.20 bitrate=   1.8kbits/s speed=0.00683x elapsed=0:00:29.28    \nframe=   14 fps=0.5 q=51.0 size=       0KiB time=00:00:00.20 bitrate=   1.8kbits/s speed=0.00671x elapsed=0:00:29.80    \nframe=   14 fps=0.5 q=51.0 size=       0KiB time=00:00:00.20 bitrate=   1.8kbits/s speed=0.00659x elapsed=0:00:30.35    \nframe=   14 fps=0.5 q=51.0 size=       0KiB time=00:00:00.20 bitrate=   1.8kbits/s speed=0.00648x elapsed=0:00:30.86    \nframe=   15 fps=0.5 q=51.0 size=       0KiB time=00:00:00.21 bitrate=   1.6kbits/s speed=0.0069x elapsed=0:00:31.39    \nframe=   16 fps=0.5 q=51.0 size=       0KiB time=00:00:00.23 bitrate=   1.5kbits/s speed=0.00731x elapsed=0:00:31.92    \nframe=   16 fps=0.5 q=51.0 size=       0KiB time=00:00:00.23 bitrate=   1.5kbits/s speed=0.00719x elapsed=0:00:32.43    \nframe=   16 fps=0.5 q=51.0 size=       0KiB time=00:00:00.23 bitrate=   1.5kbits/s speed=0.00708x elapsed=0:00:32.96    \nframe=   17 fps=0.5 q=51.0 size=       0KiB time=00:00:00.25 bitrate=   1.4kbits/s speed=0.00747x elapsed=0:00:33.47    \nframe=   18 fps=0.5 q=51.0 size=       0KiB time=00:00:00.26 bitrate=   1.3kbits/s speed=0.00784x elapsed=0:00:33.99    \nframe=   18 fps=0.5 q=51.0 size=       0KiB time=00:00:00.26 bitrate=   1.3kbits/s speed=0.00773x elapsed=0:00:34.51    \nframe=   18 fps=0.5 q=51.0 size=       0KiB time=00:00:00.26 bitrate=   1.3kbits/s speed=0.00761x elapsed=0:00:35.03    \nframe=   19 fps=0.5 q=51.0 size=       0KiB time=00:00:00.28 bitrate=   1.2kbits/s speed=0.00796x elapsed=0:00:35.57    \nframe=   19 fps=0.5 q=51.0 size=       0KiB time=00:00:00.28 bitrate=   1.2kbits/s speed=0.00785x elapsed=0:00:36.10    \nframe=   20 fps=0.5 q=51.0 size=       0KiB time=00:00:00.30 bitrate=   1.2kbits/s speed=0.00819x elapsed=0:00:36.63    \nframe=   20 fps=0.5 q=51.0 size=       0KiB time=00:00:00.30 bitrate=   1.2kbits/s speed=0.00807x elapsed=0:00:37.18    \nframe=   21 fps=0.6 q=51.0 size=       0KiB time=00:00:00.31 bitrate=   1.1kbits/s speed=0.0084x elapsed=0:00:37.70    \nframe=   21 fps=0.5 q=51.0 size=       0KiB time=00:00:00.31 bitrate=   1.1kbits/s speed=0.00828x elapsed=0:00:38.24    \nframe=   21 fps=0.5 q=51.0 size=       0KiB time=00:00:00.31 bitrate=   1.1kbits/s speed=0.00817x elapsed=0:00:38.78    \nframe=   21 fps=0.5 q=51.0 size=       0KiB time=00:00:00.31 bitrate=   1.1kbits/s speed=0.00806x elapsed=0:00:39.29    \nframe=   21 fps=0.5 q=51.0 size=       0KiB time=00:00:00.31 bitrate=   1.1kbits/s speed=0.00795x elapsed=0:00:39.82    \nframe=   22 fps=0.5 q=51.0 size=       0KiB time=00:00:00.33 bitrate=   1.1kbits/s speed=0.00826x elapsed=0:00:40.34    \nframe=   23 fps=0.6 q=51.0 size=       0KiB time=00:00:00.35 bitrate=   1.0kbits/s speed=0.00856x elapsed=0:00:40.89    \nframe=   24 fps=0.6 q=51.0 size=       0KiB time=00:00:00.36 bitrate=   1.0kbits/s speed=0.00886x elapsed=0:00:41.40    \nframe=   24 fps=0.6 q=51.0 size=       0KiB time=00:00:00.36 bitrate=   1.0kbits/s speed=0.00875x elapsed=0:00:41.92    \nframe=   25 fps=0.6 q=51.0 size=       0KiB time=00:00:00.38 bitrate=   0.9kbits/s speed=0.00903x elapsed=0:00:42.45    \nframe=   26 fps=0.6 q=51.0 size=       0KiB time=00:00:00.40 bitrate=   0.9kbits/s speed=0.0093x elapsed=0:00:43.00    \nframe=   26 fps=0.6 q=51.0 size=       0KiB time=00:00:00.40 bitrate=   0.9kbits/s speed=0.00919x elapsed=0:00:43.53    \nframe=   27 fps=0.6 q=51.0 size=       0KiB time=00:00:00.41 bitrate=   0.8kbits/s speed=0.00946x elapsed=0:00:44.03    \nframe=   27 fps=0.6 q=51.0 size=       0KiB time=00:00:00.41 bitrate=   0.8kbits/s speed=0.00934x elapsed=0:00:44.58    \nframe=   27 fps=0.6 q=51.0 size=       0KiB time=00:00:00.41 bitrate=   0.8kbits/s speed=0.00924x elapsed=0:00:45.10    \nframe=   28 fps=0.6 q=51.0 size=       0KiB time=00:00:00.43 bitrate=   0.8kbits/s speed=0.0095x elapsed=0:00:45.63    \nframe=   29 fps=0.6 q=51.0 size=       0KiB time=00:00:00.45 bitrate=   0.8kbits/s speed=0.00975x elapsed=0:00:46.16    \nframe=   29 fps=0.6 q=51.0 size=       0KiB time=00:00:00.45 bitrate=   0.8kbits/s speed=0.00963x elapsed=0:00:46.70    \nframe=   30 fps=0.6 q=51.0 size=       0KiB time=00:00:00.46 bitrate=   0.8kbits/s speed=0.00988x elapsed=0:00:47.22    \nframe=   30 fps=0.6 q=51.0 size=       0KiB time=00:00:00.46 bitrate=   0.8kbits/s speed=0.00977x elapsed=0:00:47.75    \nframe=   30 fps=0.6 q=51.0 size=       0KiB time=00:00:00.46 bitrate=   0.8kbits/s speed=0.00966x elapsed=0:00:48.29    \nframe=   31 fps=0.6 q=51.0 size=       0KiB time=00:00:00.48 bitrate=   0.7kbits/s speed=0.0099x elapsed=0:00:48.83    \nframe=   31 fps=0.6 q=51.0 size=       0KiB time=00:00:00.48 bitrate=   0.7kbits/s speed=0.00979x elapsed=0:00:49.35    \nframe=   32 fps=0.6 q=51.0 size=       0KiB time=00:00:00.50 bitrate=   0.7kbits/s speed=0.01x elapsed=0:00:49.87    \nframe=   32 fps=0.6 q=51.0 size=       0KiB time=00:00:00.50 bitrate=   0.7kbits/s speed=0.00992x elapsed=0:00:50.39    \nframe=   33 fps=0.6 q=51.0 size=       0KiB time=00:00:00.51 bitrate=   0.7kbits/s speed=0.0101x elapsed=0:00:50.91    \nframe=   33 fps=0.6 q=51.0 size=       0KiB time=00:00:00.51 bitrate=   0.7kbits/s speed=0.01x elapsed=0:00:51.43    \nframe=   34 fps=0.7 q=51.0 size=       0KiB time=00:00:00.53 bitrate=   0.7kbits/s speed=0.0103x elapsed=0:00:51.97    \nframe=   34 fps=0.6 q=51.0 size=       0KiB time=00:00:00.53 bitrate=   0.7kbits/s speed=0.0102x elapsed=0:00:52.53    \nframe=   34 fps=0.6 q=51.0 size=       0KiB time=00:00:00.53 bitrate=   0.7kbits/s speed=0.01x elapsed=0:00:53.08    \nframe=   34 fps=0.6 q=51.0 size=       0KiB time=00:00:00.53 bitrate=   0.7kbits/s speed=0.00994x elapsed=0:00:53.63    \nframe=   34 fps=0.6 q=51.0 size=       0KiB time=00:00:00.53 bitrate=   0.7kbits/s speed=0.00984x elapsed=0:00:54.17    \nframe=   34 fps=0.6 q=51.0 size=       0KiB time=00:00:00.53 bitrate=   0.7kbits/s speed=0.00975x elapsed=0:00:54.72    \nframe=   35 fps=0.6 q=51.0 size=       0KiB time=00:00:00.55 bitrate=   0.6kbits/s speed=0.00996x elapsed=0:00:55.23    \nframe=   35 fps=0.6 q=51.0 size=       0KiB time=00:00:00.55 bitrate=   0.6kbits/s speed=0.00986x elapsed=0:00:55.77    \nframe=   36 fps=0.6 q=51.0 size=       0KiB time=00:00:00.56 bitrate=   0.6kbits/s speed=0.0101x elapsed=0:00:56.33    \nframe=   36 fps=0.6 q=51.0 size=       0KiB time=00:00:00.56 bitrate=   0.6kbits/s speed=0.00996x elapsed=0:00:56.88    \nframe=   37 fps=0.6 q=51.0 size=       0KiB time=00:00:00.58 bitrate=   0.6kbits/s speed=0.0102x elapsed=0:00:57.40    \nframe=   37 fps=0.6 q=51.0 size=       0KiB time=00:00:00.58 bitrate=   0.6kbits/s speed=0.0101x elapsed=0:00:57.91    \nframe=   37 fps=0.6 q=51.0 size=       0KiB time=00:00:00.58 bitrate=   0.6kbits/s speed=0.00998x elapsed=0:00:58.45    \nframe=   37 fps=0.6 q=51.0 size=       0KiB time=00:00:00.58 bitrate=   0.6kbits/s speed=0.00989x elapsed=0:00:58.99    \nframe=   38 fps=0.6 q=51.0 size=       0KiB time=00:00:00.60 bitrate=   0.6kbits/s speed=0.0101x elapsed=0:00:59.50    \nframe=   38 fps=0.6 q=51.0 size=       0KiB time=00:00:00.60 bitrate=   0.6kbits/s speed=0.00999x elapsed=0:01:00.04    \nframe=   38 fps=0.6 q=51.0 size=       0KiB time=00:00:00.60 bitrate=   0.6kbits/s speed=0.0099x elapsed=0:01:00.58    \nframe=   39 fps=0.6 q=51.0 size=       0KiB time=00:00:00.61 bitrate=   0.6kbits/s speed=0.0101x elapsed=0:01:01.16    \nframe=   39 fps=0.6 q=51.0 size=       0KiB time=00:00:00.61 bitrate=   0.6kbits/s speed=0.00999x elapsed=0:01:01.69    \nframe=   40 fps=0.6 q=51.0 size=       0KiB time=00:00:00.63 bitrate=   0.6kbits/s speed=0.0102x elapsed=0:01:02.21    \nframe=   41 fps=0.7 q=51.0 size=       0KiB time=00:00:00.65 bitrate=   0.5kbits/s speed=0.0104x elapsed=0:01:02.73    \nframe=   41 fps=0.6 q=51.0 size=       0KiB time=00:00:00.65 bitrate=   0.5kbits/s speed=0.0103x elapsed=0:01:03.34    \nframe=   41 fps=0.6 q=51.0 size=       0KiB time=00:00:00.65 bitrate=   0.5kbits/s speed=0.0102x elapsed=0:01:03.88    \nframe=   42 fps=0.7 q=51.0 size=       0KiB time=00:00:00.66 bitrate=   0.5kbits/s speed=0.0104x elapsed=0:01:04.40    \nframe=   42 fps=0.6 q=51.0 size=       0KiB time=00:00:00.66 bitrate=   0.5kbits/s speed=0.0103x elapsed=0:01:04.97    \nframe=   42 fps=0.6 q=51.0 size=       0KiB time=00:00:00.66 bitrate=   0.5kbits/s speed=0.0102x elapsed=0:01:05.50    \nframe=   42 fps=0.6 q=51.0 size=       0KiB time=00:00:00.66 bitrate=   0.5kbits/s speed=0.0101x elapsed=0:01:06.03    \nframe=   43 fps=0.6 q=51.0 size=       0KiB time=00:00:00.68 bitrate=   0.5kbits/s speed=0.0103x elapsed=0:01:06.59    \nframe=   43 fps=0.6 q=51.0 size=       0KiB time=00:00:00.68 bitrate=   0.5kbits/s speed=0.0102x elapsed=0:01:07.11    \nframe=   43 fps=0.6 q=51.0 size=       0KiB time=00:00:00.68 bitrate=   0.5kbits/s speed=0.0101x elapsed=0:01:07.65    \nframe=   44 fps=0.6 q=51.0 size=       0KiB time=00:00:00.70 bitrate=   0.5kbits/s speed=0.0103x elapsed=0:01:08.17    \nframe=   44 fps=0.6 q=51.0 size=       0KiB time=00:00:00.70 bitrate=   0.5kbits/s speed=0.0102x elapsed=0:01:08.69    \nframe=   45 fps=0.7 q=51.0 size=       0KiB time=00:00:00.71 bitrate=   0.5kbits/s speed=0.0104x elapsed=0:01:09.22    \nframe=   45 fps=0.6 q=51.0 size=       0KiB time=00:00:00.71 bitrate=   0.5kbits/s speed=0.0103x elapsed=0:01:09.74    \nframe=   46 fps=0.7 q=51.0 size=       0KiB time=00:00:00.73 bitrate=   0.5kbits/s speed=0.0104x elapsed=0:01:10.26    \nframe=   46 fps=0.6 q=51.0 size=       0KiB time=00:00:00.73 bitrate=   0.5kbits/s speed=0.0104x elapsed=0:01:10.79    \nframe=   47 fps=0.7 q=51.0 size=       0KiB time=00:00:00.73 bitrate=   0.5kbits/s speed=0.0103x elapsed=0:01:11.35    \nframe=   47 fps=0.7 q=51.0 size=       0KiB time=00:00:00.75 bitrate=   0.5kbits/s speed=0.0104x elapsed=0:01:11.90    \nframe=   47 fps=0.6 q=51.0 size=       0KiB time=00:00:00.75 bitrate=   0.5kbits/s speed=0.0104x elapsed=0:01:12.44    \nframe=   48 fps=0.7 q=51.0 size=       0KiB time=00:00:00.76 bitrate=   0.5kbits/s speed=0.0105x elapsed=0:01:12.97    \nframe=   48 fps=0.7 q=51.0 size=       0KiB time=00:00:00.76 bitrate=   0.5kbits/s speed=0.0104x elapsed=0:01:13.51    \nframe=   49 fps=0.7 q=51.0 size=       0KiB time=00:00:00.78 bitrate=   0.4kbits/s speed=0.0106x elapsed=0:01:14.05    \nframe=   49 fps=0.7 q=51.0 size=       0KiB time=00:00:00.78 bitrate=   0.4kbits/s speed=0.0105x elapsed=0:01:14.57    \nframe=   49 fps=0.7 q=51.0 size=       0KiB time=00:00:00.78 bitrate=   0.4kbits/s speed=0.0104x elapsed=0:01:15.11    \nframe=   49 fps=0.6 q=51.0 size=       0KiB time=00:00:00.78 bitrate=   0.4kbits/s speed=0.0104x elapsed=0:01:15.64    \nframe=   50 fps=0.7 q=51.0 size=       0KiB time=00:00:00.80 bitrate=   0.4kbits/s speed=0.0105x elapsed=0:01:16.17    \nframe=   50 fps=0.7 q=51.0 size=       0KiB time=00:00:00.80 bitrate=   0.4kbits/s speed=0.0104x elapsed=0:01:16.68    \nframe=   51 fps=0.7 q=51.0 size=       0KiB time=00:00:00.81 bitrate=   0.4kbits/s speed=0.0106x elapsed=0:01:17.20    \nframe=   51 fps=0.7 q=51.0 size=       0KiB time=00:00:00.81 bitrate=   0.4kbits/s speed=0.0105x elapsed=0:01:17.72    \nframe=   52 fps=0.7 q=51.0 size=       0KiB time=00:00:00.81 bitrate=   0.4kbits/s speed=0.0104x elapsed=0:01:18.26    \nframe=   52 fps=0.7 q=51.0 size=       0KiB time=00:00:00.83 bitrate=   0.4kbits/s speed=0.0106x elapsed=0:01:18.81    \nframe=   53 fps=0.7 q=51.0 size=       0KiB time=00:00:00.85 bitrate=   0.4kbits/s speed=0.0107x elapsed=0:01:19.33    \nframe=   53 fps=0.7 q=51.0 size=       0KiB time=00:00:00.85 bitrate=   0.4kbits/s speed=0.0106x elapsed=0:01:19.83    \nframe=   54 fps=0.7 q=51.0 size=       0KiB time=00:00:00.86 bitrate=   0.4kbits/s speed=0.0108x elapsed=0:01:20.35    \nframe=   54 fps=0.7 q=51.0 size=       0KiB time=00:00:00.86 bitrate=   0.4kbits/s speed=0.0107x elapsed=0:01:20.87    \nframe=   54 fps=0.7 q=51.0 size=       0KiB time=00:00:00.86 bitrate=   0.4kbits/s speed=0.0106x elapsed=0:01:21.42    \nframe=   55 fps=0.7 q=51.0 size=       0KiB time=00:00:00.88 bitrate=   0.4kbits/s speed=0.0108x elapsed=0:01:21.97    \nframe=   55 fps=0.7 q=51.0 size=       0KiB time=00:00:00.88 bitrate=   0.4kbits/s speed=0.0107x elapsed=0:01:22.49    \nframe=   56 fps=0.7 q=51.0 size=     256KiB time=00:00:00.90 bitrate=2330.6kbits/s speed=0.0108x elapsed=0:01:23.03    \nframe=   56 fps=0.7 q=51.0 size=     256KiB time=00:00:00.90 bitrate=2330.6kbits/s speed=0.0108x elapsed=0:01:23.55    \nframe=   56 fps=0.7 q=51.0 size=     256KiB time=00:00:00.90 bitrate=2330.6kbits/s speed=0.0107x elapsed=0:01:24.10    \nframe=   56 fps=0.7 q=51.0 size=     256KiB time=00:00:00.90 bitrate=2330.6kbits/s speed=0.0106x elapsed=0:01:24.62    \nframe=   57 fps=0.7 q=51.0 size=     256KiB time=00:00:00.91 bitrate=2288.2kbits/s speed=0.0108x elapsed=0:01:25.15    \nframe=   57 fps=0.7 q=51.0 size=     256KiB time=00:00:00.91 bitrate=2288.2kbits/s speed=0.0107x elapsed=0:01:25.69    \nframe=   58 fps=0.7 q=51.0 size=     256KiB time=00:00:00.93 bitrate=2247.3kbits/s speed=0.0108x elapsed=0:01:26.19    \nframe=   58 fps=0.7 q=51.0 size=     256KiB time=00:00:00.93 bitrate=2247.3kbits/s speed=0.0108x elapsed=0:01:26.71    \nframe=   58 fps=0.7 q=51.0 size=     256KiB time=00:00:00.93 bitrate=2247.3kbits/s speed=0.0107x elapsed=0:01:27.24    \nframe=   59 fps=0.7 q=51.0 size=     256KiB time=00:00:00.95 bitrate=2207.9kbits/s speed=0.0108x elapsed=0:01:27.77    \nframe=   59 fps=0.7 q=51.0 size=     256KiB time=00:00:00.95 bitrate=2207.9kbits/s speed=0.0108x elapsed=0:01:28.28    \nframe=   60 fps=0.7 q=51.0 size=     256KiB time=00:00:00.96 bitrate=2169.8kbits/s speed=0.0109x elapsed=0:01:28.80    \nframe=   60 fps=0.7 q=51.0 size=     256KiB time=00:00:00.96 bitrate=2169.8kbits/s speed=0.0108x elapsed=0:01:29.32    \nframe=   61 fps=0.7 q=51.0 size=     256KiB time=00:00:00.98 bitrate=2133.1kbits/s speed=0.0109x elapsed=0:01:29.83    \nframe=   61 fps=0.7 q=51.0 size=     256KiB time=00:00:00.98 bitrate=2133.1kbits/s speed=0.0109x elapsed=0:01:30.35    \nframe=   62 fps=0.7 q=51.0 size=     256KiB time=00:00:01.00 bitrate=2097.5kbits/s speed=0.011x elapsed=0:01:30.87    \nframe=   62 fps=0.7 q=51.0 size=     256KiB time=00:00:01.00 bitrate=2097.5kbits/s speed=0.0109x elapsed=0:01:31.43    \nframe=   62 fps=0.7 q=51.0 size=     256KiB time=00:00:01.00 bitrate=2097.5kbits/s speed=0.0109x elapsed=0:01:32.00    \nframe=   62 fps=0.7 q=51.0 size=     256KiB time=00:00:01.00 bitrate=2097.5kbits/s speed=0.0108x elapsed=0:01:32.53    \nframe=   62 fps=0.7 q=51.0 size=     256KiB time=00:00:01.00 bitrate=2097.5kbits/s speed=0.0107x elapsed=0:01:33.06    \nframe=   62 fps=0.7 q=51.0 size=     256KiB time=00:00:01.00 bitrate=2097.5kbits/s speed=0.0107x elapsed=0:01:33.56    \nframe=   62 fps=0.7 q=51.0 size=     256KiB time=00:00:01.00 bitrate=2097.5kbits/s speed=0.0106x elapsed=0:01:34.10    \nframe=   63 fps=0.7 q=51.0 size=     256KiB time=00:00:01.01 bitrate=2063.1kbits/s speed=0.0107x elapsed=0:01:34.62    \nframe=   63 fps=0.7 q=51.0 size=     256KiB time=00:00:01.01 bitrate=2063.1kbits/s speed=0.0107x elapsed=0:01:35.16    \nframe=   63 fps=0.7 q=51.0 size=     256KiB time=00:00:01.01 bitrate=2063.1kbits/s speed=0.0106x elapsed=0:01:35.68    \nframe=   63 fps=0.7 q=51.0 size=     256KiB time=00:00:01.01 bitrate=2063.1kbits/s speed=0.0106x elapsed=0:01:36.22    \nframe=   64 fps=0.7 q=51.0 size=     256KiB time=00:00:01.03 bitrate=2029.8kbits/s speed=0.0107x elapsed=0:01:36.77    \nframe=   64 fps=0.7 q=51.0 size=     256KiB time=00:00:01.03 bitrate=2029.8kbits/s speed=0.0106x elapsed=0:01:37.32    \nframe=   64 fps=0.7 q=51.0 size=     256KiB time=00:00:01.03 bitrate=2029.8kbits/s speed=0.0106x elapsed=0:01:37.83    \nframe=   64 fps=0.7 q=51.0 size=     256KiB time=00:00:01.03 bitrate=2029.8kbits/s speed=0.0105x elapsed=0:01:38.35    \nframe=   65 fps=0.7 q=51.0 size=     256KiB time=00:00:01.05 bitrate=1997.6kbits/s speed=0.0106x elapsed=0:01:38.89    \nframe=   66 fps=0.7 q=51.0 size=     256KiB time=00:00:01.06 bitrate=1966.4kbits/s speed=0.0107x elapsed=0:01:39.43    \nframe=   66 fps=0.7 q=51.0 size=     256KiB time=00:00:01.06 bitrate=1966.4kbits/s speed=0.0107x elapsed=0:01:39.97    \nframe=   66 fps=0.7 q=51.0 size=     256KiB time=00:00:01.06 bitrate=1966.4kbits/s speed=0.0106x elapsed=0:01:40.49    \nframe=   67 fps=0.7 q=51.0 size=     256KiB time=00:00:01.08 bitrate=1936.2kbits/s speed=0.0107x elapsed=0:01:41.02    \nframe=   67 fps=0.7 q=51.0 size=     256KiB time=00:00:01.08 bitrate=1936.2kbits/s speed=0.0107x elapsed=0:01:41.56    \nframe=   67 fps=0.7 q=51.0 size=     256KiB time=00:00:01.08 bitrate=1936.2kbits/s speed=0.0106x elapsed=0:01:42.09    \nframe=   67 fps=0.7 q=51.0 size=     256KiB time=00:00:01.08 bitrate=1936.2kbits/s speed=0.0106x elapsed=0:01:42.61    \nframe=   68 fps=0.7 q=51.0 size=     256KiB time=00:00:01.10 bitrate=1906.8kbits/s speed=0.0107x elapsed=0:01:43.13    \nframe=   69 fps=0.7 q=51.0 size=     256KiB time=00:00:01.11 bitrate=1878.4kbits/s speed=0.0108x elapsed=0:01:43.65    \nframe=   69 fps=0.7 q=51.0 size=     256KiB time=00:00:01.11 bitrate=1878.4kbits/s speed=0.0107x elapsed=0:01:44.20    \nframe=   69 fps=0.7 q=51.0 size=     256KiB time=00:00:01.11 bitrate=1878.4kbits/s speed=0.0107x elapsed=0:01:44.73    \nframe=   70 fps=0.7 q=51.0 size=     256KiB time=00:00:01.13 bitrate=1850.7kbits/s speed=0.0108x elapsed=0:01:45.24    \nframe=   70 fps=0.7 q=51.0 size=     256KiB time=00:00:01.13 bitrate=1850.7kbits/s speed=0.0107x elapsed=0:01:45.78    \nframe=   70 fps=0.7 q=51.0 size=     256KiB time=00:00:01.13 bitrate=1850.7kbits/s speed=0.0107x elapsed=0:01:46.31    \nframe=   71 fps=0.7 q=51.0 size=     256KiB time=00:00:01.15 bitrate=1823.9kbits/s speed=0.0108x elapsed=0:01:46.84    \nframe=   71 fps=0.7 q=51.0 size=     256KiB time=00:00:01.15 bitrate=1823.9kbits/s speed=0.0107x elapsed=0:01:47.37    \nframe=   72 fps=0.7 q=51.0 size=     256KiB time=00:00:01.16 bitrate=1797.9kbits/s speed=0.0108x elapsed=0:01:47.93    \nframe=   72 fps=0.7 q=51.0 size=     256KiB time=00:00:01.16 bitrate=1797.9kbits/s speed=0.0108x elapsed=0:01:48.47    \nframe=   72 fps=0.7 q=51.0 size=     256KiB time=00:00:01.16 bitrate=1797.9kbits/s speed=0.0107x elapsed=0:01:49.00    \nframe=   73 fps=0.7 q=51.0 size=     256KiB time=00:00:01.18 bitrate=1772.5kbits/s speed=0.0108x elapsed=0:01:49.54    \nframe=   74 fps=0.7 q=51.0 size=     256KiB time=00:00:01.20 bitrate=1747.9kbits/s speed=0.0109x elapsed=0:01:50.09    \nframe=   74 fps=0.7 q=51.0 size=     256KiB time=00:00:01.20 bitrate=1747.9kbits/s speed=0.0108x elapsed=0:01:50.63    \nframe=   74 fps=0.7 q=51.0 size=     256KiB time=00:00:01.20 bitrate=1747.9kbits/s speed=0.0108x elapsed=0:01:51.17    \nframe=   74 fps=0.7 q=51.0 size=     256KiB time=00:00:01.20 bitrate=1747.9kbits/s speed=0.0107x elapsed=0:01:51.69    \nframe=   75 fps=0.7 q=51.0 size=     256KiB time=00:00:01.21 bitrate=1724.0kbits/s speed=0.0108x elapsed=0:01:52.25    \nframe=   75 fps=0.7 q=51.0 size=     256KiB time=00:00:01.21 bitrate=1724.0kbits/s speed=0.0108x elapsed=0:01:52.78    \nframe=   75 fps=0.7 q=51.0 size=     256KiB time=00:00:01.21 bitrate=1724.0kbits/s speed=0.0107x elapsed=0:01:53.31    \nframe=   76 fps=0.7 q=51.0 size=     256KiB time=00:00:01.23 bitrate=1700.7kbits/s speed=0.0108x elapsed=0:01:53.84    \nframe=   76 fps=0.7 q=51.0 size=     256KiB time=00:00:01.23 bitrate=1700.7kbits/s speed=0.0108x elapsed=0:01:54.38    \nframe=   77 fps=0.7 q=51.0 size=     256KiB time=00:00:01.25 bitrate=1678.0kbits/s speed=0.0109x elapsed=0:01:54.92    \nframe=   78 fps=0.7 q=51.0 size=     256KiB time=00:00:01.26 bitrate=1655.9kbits/s speed=0.011x elapsed=0:01:55.45    \nframe=   78 fps=0.7 q=51.0 size=     256KiB time=00:00:01.26 bitrate=1655.9kbits/s speed=0.0109x elapsed=0:01:55.99    \nx265 [warning]: poc:76, VBV underflow (-920 bits)\nframe=   79 fps=0.7 q=51.0 size=     256KiB time=00:00:01.28 bitrate=1634.4kbits/s speed=0.011x elapsed=0:01:56.50    \nframe=   79 fps=0.7 q=51.0 size=     256KiB time=00:00:01.28 bitrate=1634.4kbits/s speed=0.011x elapsed=0:01:57.04    \nframe=   79 fps=0.7 q=51.0 size=     256KiB time=00:00:01.28 bitrate=1634.4kbits/s speed=0.0109x elapsed=0:01:57.57    \nframe=   79 fps=0.7 q=51.0 size=     256KiB time=00:00:01.28 bitrate=1634.4kbits/s speed=0.0109x elapsed=0:01:58.10    \nx265 [warning]: poc:78, VBV underflow (-4384 bits)\nframe=   80 fps=0.7 q=51.0 size=     256KiB time=00:00:01.30 bitrate=1613.5kbits/s speed=0.011x elapsed=0:01:58.61    \nframe=   80 fps=0.7 q=51.0 size=     256KiB time=00:00:01.30 bitrate=1613.5kbits/s speed=0.0109x elapsed=0:01:59.14    \nframe=   80 fps=0.7 q=51.0 size=     256KiB time=00:00:01.30 bitrate=1613.5kbits/s speed=0.0109x elapsed=0:01:59.67    \nx265 [warning]: poc:84, VBV underflow (-32656 bits)\nframe=   81 fps=0.7 q=51.0 size=     256KiB time=00:00:01.31 bitrate=1593.0kbits/s speed=0.011x elapsed=0:02:00.22    \nframe=   81 fps=0.7 q=51.0 size=     256KiB time=00:00:01.31 bitrate=1593.0kbits/s speed=0.0109x elapsed=0:02:00.76    \nframe=   81 fps=0.7 q=51.0 size=     256KiB time=00:00:01.31 bitrate=1593.0kbits/s speed=0.0109x elapsed=0:02:01.29    \nx265 [warning]: poc:82, VBV underflow (-26904 bits)\nframe=   82 fps=0.7 q=51.0 size=     256KiB time=00:00:01.33 bitrate=1573.1kbits/s speed=0.0109x elapsed=0:02:01.83    \nframe=   82 fps=0.7 q=51.0 size=     256KiB time=00:00:01.33 bitrate=1573.1kbits/s speed=0.0109x elapsed=0:02:02.36    \nframe=   82 fps=0.7 q=51.0 size=     256KiB time=00:00:01.33 bitrate=1573.1kbits/s speed=0.0108x elapsed=0:02:02.89    \nx265 [warning]: poc:80, VBV underflow (-13240 bits)\nframe=   83 fps=0.7 q=51.0 size=     256KiB time=00:00:01.35 bitrate=1553.7kbits/s speed=0.0109x elapsed=0:02:03.40    \nframe=   83 fps=0.7 q=51.0 size=     256KiB time=00:00:01.35 bitrate=1553.7kbits/s speed=0.0109x elapsed=0:02:03.93    \nframe=   83 fps=0.7 q=51.0 size=     256KiB time=00:00:01.35 bitrate=1553.7kbits/s speed=0.0108x elapsed=0:02:04.46    \nframe=   83 fps=0.7 q=51.0 size=     256KiB time=00:00:01.35 bitrate=1553.7kbits/s speed=0.0108x elapsed=0:02:04.98    \nx265 [warning]: poc:81, VBV underflow (-12904 bits)\nframe=   84 fps=0.7 q=51.0 size=     256KiB time=00:00:01.36 bitrate=1534.8kbits/s speed=0.0109x elapsed=0:02:05.52    \nframe=   84 fps=0.7 q=51.0 size=     256KiB time=00:00:01.36 bitrate=1534.8kbits/s speed=0.0108x elapsed=0:02:06.03    \nframe=   84 fps=0.7 q=51.0 size=     256KiB time=00:00:01.36 bitrate=1534.8kbits/s speed=0.0108x elapsed=0:02:06.56    \nx265 [warning]: poc:83, VBV underflow (-2840 bits)\nframe=   85 fps=0.7 q=51.0 size=     256KiB time=00:00:01.38 bitrate=1516.3kbits/s speed=0.0109x elapsed=0:02:07.06    \nframe=   85 fps=0.7 q=51.0 size=     256KiB time=00:00:01.38 bitrate=1516.3kbits/s speed=0.0108x elapsed=0:02:07.61    \nx265 [warning]: poc:89, VBV underflow (-32944 bits)\nframe=   86 fps=0.7 q=51.0 size=     256KiB time=00:00:01.40 bitrate=1498.2kbits/s speed=0.0109x elapsed=0:02:08.14    \nframe=   86 fps=0.7 q=51.0 size=     256KiB time=00:00:01.40 bitrate=1498.2kbits/s speed=0.0109x elapsed=0:02:08.67    \nx265 [warning]: poc:87, VBV underflow (-24904 bits)\nframe=   87 fps=0.7 q=51.0 size=     256KiB time=00:00:01.41 bitrate=1480.6kbits/s speed=0.011x elapsed=0:02:09.20    \nframe=   87 fps=0.7 q=51.0 size=     256KiB time=00:00:01.41 bitrate=1480.6kbits/s speed=0.0109x elapsed=0:02:09.71    \nframe=   87 fps=0.7 q=51.0 size=     256KiB time=00:00:01.41 bitrate=1480.6kbits/s speed=0.0109x elapsed=0:02:10.24    \nx265 [warning]: poc:85, VBV underflow (-12816 bits)\nframe=   88 fps=0.7 q=51.0 size=     256KiB time=00:00:01.43 bitrate=1463.4kbits/s speed=0.011x elapsed=0:02:10.77    \nframe=   88 fps=0.7 q=51.0 size=     256KiB time=00:00:01.43 bitrate=1463.4kbits/s speed=0.0109x elapsed=0:02:11.29    \nframe=   88 fps=0.7 q=51.0 size=     256KiB time=00:00:01.43 bitrate=1463.4kbits/s speed=0.0109x elapsed=0:02:11.83    \nx265 [warning]: poc:86, VBV underflow (-13120 bits)\nframe=   89 fps=0.7 q=51.0 size=     256KiB time=00:00:01.45 bitrate=1446.6kbits/s speed=0.011x elapsed=0:02:12.35    \nframe=   89 fps=0.7 q=51.0 size=     256KiB time=00:00:01.45 bitrate=1446.6kbits/s speed=0.0109x elapsed=0:02:12.88    \nx265 [warning]: poc:88, VBV underflow (-2096 bits)\nframe=   90 fps=0.7 q=51.0 size=     256KiB time=00:00:01.46 bitrate=1430.1kbits/s speed=0.011x elapsed=0:02:13.39    \nframe=   90 fps=0.7 q=51.0 size=     256KiB time=00:00:01.46 bitrate=1430.1kbits/s speed=0.0109x elapsed=0:02:13.96    \nframe=   90 fps=0.7 q=51.0 size=     256KiB time=00:00:01.46 bitrate=1430.1kbits/s speed=0.0109x elapsed=0:02:14.50    \nx265 [warning]: poc:93, VBV underflow (-32480 bits)\nframe=   91 fps=0.7 q=51.0 size=     256KiB time=00:00:01.48 bitrate=1414.0kbits/s speed=0.011x elapsed=0:02:15.03    \nx265 [warning]: poc:91, VBV underflow (-23256 bits)\nframe=   92 fps=0.7 q=51.0 size=     256KiB time=00:00:01.50 bitrate=1398.3kbits/s speed=0.0111x elapsed=0:02:15.56    \nx265 [warning]: poc:90, VBV underflow (-3936 bits)\nframe=   93 fps=0.7 q=51.0 size=     256KiB time=00:00:01.51 bitrate=1383.0kbits/s speed=0.0111x elapsed=0:02:16.08    \nx265 [warning]: poc:92, VBV underflow (-4360 bits)\nx265 [warning]: poc:97, VBV underflow (-33376 bits)\nframe=   95 fps=0.7 q=51.0 size=     256KiB time=00:00:01.55 bitrate=1353.2kbits/s speed=0.0113x elapsed=0:02:16.62    \nframe=   95 fps=0.7 q=51.0 size=     256KiB time=00:00:01.55 bitrate=1353.2kbits/s speed=0.0113x elapsed=0:02:17.21    \nframe=   95 fps=0.7 q=51.0 size=     256KiB time=00:00:01.55 bitrate=1353.2kbits/s speed=0.0113x elapsed=0:02:17.77    \nframe=   95 fps=0.7 q=51.0 size=     256KiB time=00:00:01.55 bitrate=1353.2kbits/s speed=0.0112x elapsed=0:02:18.33    \nframe=   95 fps=0.7 q=51.0 size=     256KiB time=00:00:01.55 bitrate=1353.2kbits/s speed=0.0112x elapsed=0:02:18.85    \nframe=   95 fps=0.7 q=51.0 size=     256KiB time=00:00:01.55 bitrate=1353.2kbits/s speed=0.0111x elapsed=0:02:19.39    \nx265 [warning]: poc:95, VBV underflow (-23088 bits)\nframe=   96 fps=0.7 q=51.0 size=     256KiB time=00:00:01.56 bitrate=1338.8kbits/s speed=0.0112x elapsed=0:02:19.95    \nframe=   96 fps=0.7 q=51.0 size=     256KiB time=00:00:01.56 bitrate=1338.8kbits/s speed=0.0112x elapsed=0:02:20.49    \nframe=   96 fps=0.7 q=51.0 size=     256KiB time=00:00:01.56 bitrate=1338.8kbits/s speed=0.0111x elapsed=0:02:21.01    \nframe=   96 fps=0.7 q=51.0 size=     256KiB time=00:00:01.56 bitrate=1338.8kbits/s speed=0.0111x elapsed=0:02:21.55    \nx265 [warning]: poc:94, VBV underflow (-4304 bits)\nframe=   97 fps=0.7 q=51.0 size=     256KiB time=00:00:01.58 bitrate=1324.7kbits/s speed=0.0111x elapsed=0:02:22.08    \nframe=   97 fps=0.7 q=51.0 size=     256KiB time=00:00:01.58 bitrate=1324.7kbits/s speed=0.0111x elapsed=0:02:22.61    \nframe=   97 fps=0.7 q=51.0 size=     256KiB time=00:00:01.58 bitrate=1324.7kbits/s speed=0.0111x elapsed=0:02:23.13    \nframe=   97 fps=0.7 q=51.0 size=     256KiB time=00:00:01.58 bitrate=1324.7kbits/s speed=0.011x elapsed=0:02:23.67    \nframe=   97 fps=0.7 q=51.0 size=     256KiB time=00:00:01.58 bitrate=1324.7kbits/s speed=0.011x elapsed=0:02:24.19    \nx265 [warning]: poc:96, VBV underflow (-3240 bits)\nframe=   98 fps=0.7 q=51.0 size=     256KiB time=00:00:01.60 bitrate=1310.9kbits/s speed=0.0111x elapsed=0:02:24.70    \nframe=   98 fps=0.7 q=51.0 size=     256KiB time=00:00:01.60 bitrate=1310.9kbits/s speed=0.011x elapsed=0:02:25.24    \nframe=   98 fps=0.7 q=51.0 size=     256KiB time=00:00:01.60 bitrate=1310.9kbits/s speed=0.011x elapsed=0:02:25.79    \nx265 [warning]: poc:101, VBV underflow (-29568 bits)\nframe=   99 fps=0.7 q=51.0 size=     256KiB time=00:00:01.61 bitrate=1297.4kbits/s speed=0.011x elapsed=0:02:26.34    \nframe=   99 fps=0.7 q=51.0 size=     256KiB time=00:00:01.61 bitrate=1297.4kbits/s speed=0.011x elapsed=0:02:26.89    \nx265 [warning]: poc:99, VBV underflow (-22448 bits)\nframe=  100 fps=0.7 q=51.0 size=     256KiB time=00:00:01.63 bitrate=1284.2kbits/s speed=0.0111x elapsed=0:02:27.40    \nx265 [warning]: poc:98, VBV underflow (-3688 bits)\nframe=  101 fps=0.7 q=51.0 size=     256KiB time=00:00:01.65 bitrate=1271.2kbits/s speed=0.0112x elapsed=0:02:27.91    \nframe=  101 fps=0.7 q=51.0 size=     256KiB time=00:00:01.65 bitrate=1271.2kbits/s speed=0.0111x elapsed=0:02:28.46    \nx265 [warning]: poc:100, VBV underflow (-3656 bits)\nframe=  102 fps=0.7 q=51.0 size=     256KiB time=00:00:01.66 bitrate=1258.5kbits/s speed=0.0112x elapsed=0:02:28.99    \nframe=  102 fps=0.7 q=51.0 size=     256KiB time=00:00:01.66 bitrate=1258.5kbits/s speed=0.0111x elapsed=0:02:29.52    \nframe=  102 fps=0.7 q=51.0 size=     256KiB time=00:00:01.66 bitrate=1258.5kbits/s speed=0.0111x elapsed=0:02:30.04    \nframe=  102 fps=0.7 q=51.0 size=     256KiB time=00:00:01.66 bitrate=1258.5kbits/s speed=0.0111x elapsed=0:02:30.55    \nx265 [warning]: poc:105, VBV underflow (-33128 bits)\nframe=  103 fps=0.7 q=51.0 size=     256KiB time=00:00:01.68 bitrate=1246.0kbits/s speed=0.0111x elapsed=0:02:31.07    \nframe=  103 fps=0.7 q=51.0 size=     256KiB time=00:00:01.68 bitrate=1246.0kbits/s speed=0.0111x elapsed=0:02:31.63    \nframe=  103 fps=0.7 q=51.0 size=     256KiB time=00:00:01.68 bitrate=1246.0kbits/s speed=0.0111x elapsed=0:02:32.15    \nx265 [warning]: poc:103, VBV underflow (-21584 bits)\nframe=  104 fps=0.7 q=51.0 size=     256KiB time=00:00:01.70 bitrate=1233.8kbits/s speed=0.0111x elapsed=0:02:32.67    \nframe=  104 fps=0.7 q=51.0 size=     256KiB time=00:00:01.70 bitrate=1233.8kbits/s speed=0.0111x elapsed=0:02:33.18    \nframe=  104 fps=0.7 q=51.0 size=     256KiB time=00:00:01.70 bitrate=1233.8kbits/s speed=0.0111x elapsed=0:02:33.72    \nx265 [warning]: poc:102, VBV underflow (-1216 bits)\nframe=  105 fps=0.7 q=51.0 size=     256KiB time=00:00:01.71 bitrate=1221.8kbits/s speed=0.0111x elapsed=0:02:34.27    \nx265 [warning]: poc:104, VBV underflow (-1552 bits)\nframe=  106 fps=0.7 q=51.0 size=     256KiB time=00:00:01.73 bitrate=1210.1kbits/s speed=0.0112x elapsed=0:02:34.77    \nframe=  106 fps=0.7 q=51.0 size=     256KiB time=00:00:01.73 bitrate=1210.1kbits/s speed=0.0112x elapsed=0:02:35.32    \nx265 [warning]: poc:109, VBV underflow (-31088 bits)\nframe=  107 fps=0.7 q=51.0 size=     256KiB time=00:00:01.75 bitrate=1198.6kbits/s speed=0.0112x elapsed=0:02:35.86    \nx265 [warning]: poc:107, VBV underflow (-22384 bits)\nframe=  108 fps=0.7 q=51.0 size=     512KiB time=00:00:01.76 bitrate=2374.3kbits/s speed=0.0113x elapsed=0:02:36.40    \nframe=  108 fps=0.7 q=51.0 size=     512KiB time=00:00:01.76 bitrate=2374.3kbits/s speed=0.0113x elapsed=0:02:36.93    \nframe=  108 fps=0.7 q=51.0 size=     512KiB time=00:00:01.76 bitrate=2374.3kbits/s speed=0.0112x elapsed=0:02:37.50    \nx265 [warning]: poc:106, VBV underflow (-3728 bits)\nframe=  109 fps=0.7 q=51.0 size=     512KiB time=00:00:01.78 bitrate=2352.1kbits/s speed=0.0113x elapsed=0:02:38.06    \nframe=  109 fps=0.7 q=51.0 size=     512KiB time=00:00:01.78 bitrate=2352.1kbits/s speed=0.0112x elapsed=0:02:38.59    \nframe=  109 fps=0.7 q=51.0 size=     512KiB time=00:00:01.78 bitrate=2352.1kbits/s speed=0.0112x elapsed=0:02:39.12    \nframe=  109 fps=0.7 q=51.0 size=     512KiB time=00:00:01.78 bitrate=2352.1kbits/s speed=0.0112x elapsed=0:02:39.64    \nx265 [warning]: poc:108, VBV underflow (-3176 bits)\nframe=  110 fps=0.7 q=51.0 size=     512KiB time=00:00:01.80 bitrate=2330.4kbits/s speed=0.0112x elapsed=0:02:40.16    \nframe=  110 fps=0.7 q=51.0 size=     512KiB time=00:00:01.80 bitrate=2330.4kbits/s speed=0.0112x elapsed=0:02:40.66    \nx265 [warning]: poc:113, VBV underflow (-30232 bits)\nframe=  111 fps=0.7 q=51.0 size=     512KiB time=00:00:01.81 bitrate=2309.0kbits/s speed=0.0113x elapsed=0:02:41.19    \nx265 [warning]: poc:111, VBV underflow (-22176 bits)\nframe=  112 fps=0.7 q=51.0 size=     512KiB time=00:00:01.81 bitrate=2309.0kbits/s speed=0.0112x elapsed=0:02:41.71    \nframe=  112 fps=0.7 q=51.0 size=     512KiB time=00:00:01.83 bitrate=2288.0kbits/s speed=0.0113x elapsed=0:02:42.29    \nframe=  112 fps=0.7 q=51.0 size=     512KiB time=00:00:01.83 bitrate=2288.0kbits/s speed=0.0113x elapsed=0:02:42.80    \nx265 [warning]: poc:110, VBV underflow (-3232 bits)\nframe=  113 fps=0.7 q=51.0 size=     512KiB time=00:00:01.85 bitrate=2267.4kbits/s speed=0.0113x elapsed=0:02:43.34    \nframe=  113 fps=0.7 q=51.0 size=     512KiB time=00:00:01.85 bitrate=2267.4kbits/s speed=0.0113x elapsed=0:02:43.92    \nframe=  113 fps=0.7 q=51.0 size=     512KiB time=00:00:01.85 bitrate=2267.4kbits/s speed=0.0112x elapsed=0:02:44.48    \nx265 [warning]: poc:112, VBV underflow (-3432 bits)\nx265 [warning]: poc:117, VBV underflow (-30776 bits)\nframe=  115 fps=0.7 q=51.0 size=     512KiB time=00:00:01.88 bitrate=2227.3kbits/s speed=0.0114x elapsed=0:02:45.02    \nframe=  115 fps=0.7 q=51.0 size=     512KiB time=00:00:01.88 bitrate=2227.3kbits/s speed=0.0114x elapsed=0:02:45.57    \nframe=  115 fps=0.7 q=51.0 size=     512KiB time=00:00:01.88 bitrate=2227.3kbits/s speed=0.0113x elapsed=0:02:46.10    \nx265 [warning]: poc:115, VBV underflow (-21136 bits)\nframe=  116 fps=0.7 q=51.0 size=     512KiB time=00:00:01.90 bitrate=2207.7kbits/s speed=0.0114x elapsed=0:02:46.64    \nframe=  116 fps=0.7 q=51.0 size=     512KiB time=00:00:01.90 bitrate=2207.7kbits/s speed=0.0114x elapsed=0:02:47.16    \nx265 [warning]: poc:114, VBV underflow (-2040 bits)\nframe=  117 fps=0.7 q=51.0 size=     512KiB time=00:00:01.91 bitrate=2188.5kbits/s speed=0.0114x elapsed=0:02:47.68    \nframe=  117 fps=0.7 q=51.0 size=     512KiB time=00:00:01.91 bitrate=2188.5kbits/s speed=0.0114x elapsed=0:02:48.21    \nframe=  117 fps=0.7 q=51.0 size=     512KiB time=00:00:01.91 bitrate=2188.5kbits/s speed=0.0114x elapsed=0:02:48.75    \nx265 [warning]: poc:116, VBV underflow (-1888 bits)\nframe=  118 fps=0.7 q=51.0 size=     512KiB time=00:00:01.93 bitrate=2169.7kbits/s speed=0.0114x elapsed=0:02:49.27    \nframe=  118 fps=0.7 q=51.0 size=     512KiB time=00:00:01.93 bitrate=2169.7kbits/s speed=0.0114x elapsed=0:02:49.82    \nframe=  118 fps=0.7 q=51.0 size=     512KiB time=00:00:01.93 bitrate=2169.7kbits/s speed=0.0113x elapsed=0:02:50.37    \nframe=  118 fps=0.7 q=51.0 size=     512KiB time=00:00:01.93 bitrate=2169.7kbits/s speed=0.0113x elapsed=0:02:50.94    \nframe=  118 fps=0.7 q=51.0 size=     512KiB time=00:00:01.93 bitrate=2169.7kbits/s speed=0.0113x elapsed=0:02:51.46    \nx265 [warning]: poc:121, VBV underflow (-30384 bits)\nframe=  119 fps=0.7 q=51.0 size=     512KiB time=00:00:01.95 bitrate=2151.1kbits/s speed=0.0113x elapsed=0:02:52.05    \nframe=  119 fps=0.7 q=51.0 size=     512KiB time=00:00:01.95 bitrate=2151.1kbits/s speed=0.0113x elapsed=0:02:52.63    \nframe=  119 fps=0.7 q=51.0 size=     512KiB time=00:00:01.95 bitrate=2151.1kbits/s speed=0.0113x elapsed=0:02:53.17    \nx265 [warning]: poc:119, VBV underflow (-22200 bits)\nframe=  120 fps=0.7 q=51.0 size=     512KiB time=00:00:01.96 bitrate=2132.9kbits/s speed=0.0113x elapsed=0:02:53.76    \nframe=  120 fps=0.7 q=51.0 size=     512KiB time=00:00:01.96 bitrate=2132.9kbits/s speed=0.0113x elapsed=0:02:54.32    \nframe=  120 fps=0.7 q=51.0 size=     512KiB time=00:00:01.96 bitrate=2132.9kbits/s speed=0.0112x elapsed=0:02:54.90    \nframe=  120 fps=0.7 q=51.0 size=     512KiB time=00:00:01.96 bitrate=2132.9kbits/s speed=0.0112x elapsed=0:02:55.44    \nx265 [warning]: poc:118, VBV underflow (-3592 bits)\nx265 [warning]: poc:120, VBV underflow (-3104 bits)\nframe=  122 fps=0.7 q=51.0 size=     512KiB time=00:00:02.00 bitrate=2097.3kbits/s speed=0.0114x elapsed=0:02:55.98    \nframe=  122 fps=0.7 q=51.0 size=     512KiB time=00:00:02.00 bitrate=2097.3kbits/s speed=0.0113x elapsed=0:02:56.50    \nframe=  122 fps=0.7 q=51.0 size=     512KiB time=00:00:02.00 bitrate=2097.3kbits/s speed=0.0113x elapsed=0:02:57.05    \nframe=  122 fps=0.7 q=51.0 size=     512KiB time=00:00:02.00 bitrate=2097.3kbits/s speed=0.0113x elapsed=0:02:57.60    \nx265 [warning]: poc:125, VBV underflow (-29376 bits)\nframe=  123 fps=0.7 q=51.0 size=     512KiB time=00:00:02.01 bitrate=2080.0kbits/s speed=0.0113x elapsed=0:02:58.14    \nx265 [warning]: poc:123, VBV underflow (-20120 bits)\nframe=  124 fps=0.7 q=51.0 size=     512KiB time=00:00:02.03 bitrate=2062.9kbits/s speed=0.0114x elapsed=0:02:58.68    \nx265 [warning]: poc:122, VBV underflow (-1032 bits)\nframe=  125 fps=0.7 q=51.0 size=     512KiB time=00:00:02.05 bitrate=2046.2kbits/s speed=0.0114x elapsed=0:02:59.22    \nframe=  125 fps=0.7 q=51.0 size=     512KiB time=00:00:02.05 bitrate=2046.2kbits/s speed=0.0114x elapsed=0:02:59.81    \nframe=  125 fps=0.7 q=51.0 size=     512KiB time=00:00:02.05 bitrate=2046.2kbits/s speed=0.0114x elapsed=0:03:00.34    \nframe=  125 fps=0.7 q=51.0 size=     512KiB time=00:00:02.05 bitrate=2046.2kbits/s speed=0.0113x elapsed=0:03:00.88    \nx265 [warning]: poc:124, VBV underflow (-1824 bits)\nframe=  126 fps=0.7 q=51.0 size=     512KiB time=00:00:02.06 bitrate=2029.7kbits/s speed=0.0114x elapsed=0:03:01.40    \nx265 [warning]: poc:130, VBV underflow (-31680 bits)\nframe=  127 fps=0.7 q=51.0 size=     512KiB time=00:00:02.08 bitrate=2013.4kbits/s speed=0.0115x elapsed=0:03:01.94    \nframe=  127 fps=0.7 q=51.0 size=     512KiB time=00:00:02.08 bitrate=2013.4kbits/s speed=0.0114x elapsed=0:03:02.48    \nx265 [warning]: poc:128, VBV underflow (-24128 bits)\nframe=  128 fps=0.7 q=51.0 size=     512KiB time=00:00:02.10 bitrate=1997.5kbits/s speed=0.0115x elapsed=0:03:03.01    \nframe=  128 fps=0.7 q=51.0 size=     512KiB time=00:00:02.10 bitrate=1997.5kbits/s speed=0.0114x elapsed=0:03:03.53    \nframe=  128 fps=0.7 q=51.0 size=     512KiB time=00:00:02.10 bitrate=1997.5kbits/s speed=0.0114x elapsed=0:03:04.05    \nx265 [warning]: poc:126, VBV underflow (-10176 bits)\nframe=  129 fps=0.7 q=51.0 size=     512KiB time=00:00:02.11 bitrate=1981.7kbits/s speed=0.0115x elapsed=0:03:04.57    \nx265 [warning]: poc:127, VBV underflow (-10520 bits)\nframe=  130 fps=0.7 q=51.0 size=     512KiB time=00:00:02.13 bitrate=1966.2kbits/s speed=0.0115x elapsed=0:03:05.10    \nframe=  130 fps=0.7 q=51.0 size=     512KiB time=00:00:02.13 bitrate=1966.2kbits/s speed=0.0115x elapsed=0:03:05.63    \nx265 [warning]: poc:129, VBV underflow (-3944 bits)\nframe=  131 fps=0.7 q=51.0 size=     512KiB time=00:00:02.15 bitrate=1951.0kbits/s speed=0.0115x elapsed=0:03:06.15    \nx265 [warning]: poc:134, VBV underflow (-28192 bits)\nframe=  132 fps=0.7 q=51.0 size=     512KiB time=00:00:02.16 bitrate=1936.0kbits/s speed=0.0116x elapsed=0:03:06.69    \nframe=  132 fps=0.7 q=51.0 size=     512KiB time=00:00:02.16 bitrate=1936.0kbits/s speed=0.0116x elapsed=0:03:07.23    \nframe=  132 fps=0.7 q=51.0 size=     512KiB time=00:00:02.16 bitrate=1936.0kbits/s speed=0.0115x elapsed=0:03:07.76    \nx265 [warning]: poc:132, VBV underflow (-20208 bits)\nframe=  133 fps=0.7 q=51.0 size=     512KiB time=00:00:02.18 bitrate=1921.2kbits/s speed=0.0116x elapsed=0:03:08.28    \nframe=  133 fps=0.7 q=51.0 size=     512KiB time=00:00:02.18 bitrate=1921.2kbits/s speed=0.0116x elapsed=0:03:08.82    \nx265 [warning]: poc:131, VBV underflow (-1600 bits)\nframe=  134 fps=0.7 q=51.0 size=     512KiB time=00:00:02.20 bitrate=1906.7kbits/s speed=0.0116x elapsed=0:03:09.35    \nframe=  134 fps=0.7 q=51.0 size=     512KiB time=00:00:02.20 bitrate=1906.7kbits/s speed=0.0116x elapsed=0:03:09.89    \nframe=  134 fps=0.7 q=51.0 size=     512KiB time=00:00:02.20 bitrate=1906.7kbits/s speed=0.0116x elapsed=0:03:10.44    \nx265 [warning]: poc:133, VBV underflow (-1352 bits)\nframe=  135 fps=0.7 q=51.0 size=     512KiB time=00:00:02.21 bitrate=1892.3kbits/s speed=0.0116x elapsed=0:03:10.97    \nx265 [warning]: poc:138, VBV underflow (-28432 bits)\nframe=  136 fps=0.7 q=51.0 size=     512KiB time=00:00:02.23 bitrate=1878.2kbits/s speed=0.0117x elapsed=0:03:11.52    \nx265 [warning]: poc:136, VBV underflow (-18360 bits)\nframe=  137 fps=0.7 q=51.0 size=     512KiB time=00:00:02.25 bitrate=1864.3kbits/s speed=0.0117x elapsed=0:03:12.06    \nframe=  137 fps=0.7 q=51.0 size=     512KiB time=00:00:02.25 bitrate=1864.3kbits/s speed=0.0117x elapsed=0:03:12.61    \nx265 [warning]: poc:135, VBV underflow (-1264 bits)\nframe=  138 fps=0.7 q=51.0 size=     512KiB time=00:00:02.25 bitrate=1864.3kbits/s speed=0.0116x elapsed=0:03:13.14    \nframe=  138 fps=0.7 q=51.0 size=     512KiB time=00:00:02.26 bitrate=1850.6kbits/s speed=0.0117x elapsed=0:03:13.67    \nx265 [warning]: poc:137, VBV underflow (-2480 bits)\nframe=  139 fps=0.7 q=51.0 size=     512KiB time=00:00:02.28 bitrate=1837.1kbits/s speed=0.0118x elapsed=0:03:14.17    \nframe=  139 fps=0.7 q=51.0 size=     512KiB time=00:00:02.28 bitrate=1837.1kbits/s speed=0.0117x elapsed=0:03:14.70    \nframe=  139 fps=0.7 q=51.0 size=     512KiB time=00:00:02.28 bitrate=1837.1kbits/s speed=0.0117x elapsed=0:03:15.23    \nx265 [warning]: poc:143, VBV underflow (-29832 bits)\nframe=  140 fps=0.7 q=51.0 size=     512KiB time=00:00:02.30 bitrate=1823.8kbits/s speed=0.0117x elapsed=0:03:15.75    \nframe=  140 fps=0.7 q=51.0 size=     512KiB time=00:00:02.30 bitrate=1823.8kbits/s speed=0.0117x elapsed=0:03:16.30    \nframe=  140 fps=0.7 q=51.0 size=     512KiB time=00:00:02.30 bitrate=1823.8kbits/s speed=0.0117x elapsed=0:03:16.81    \nframe=  140 fps=0.7 q=51.0 size=     512KiB time=00:00:02.30 bitrate=1823.8kbits/s speed=0.0117x elapsed=0:03:17.33    \nframe=  140 fps=0.7 q=51.0 size=     512KiB time=00:00:02.30 bitrate=1823.8kbits/s speed=0.0116x elapsed=0:03:17.86    \nx265 [warning]: poc:141, VBV underflow (-22584 bits)\nx265 [warning]: poc:139, VBV underflow (-9736 bits)\nframe=  142 fps=0.7 q=51.0 size=     512KiB time=00:00:02.31 bitrate=1810.6kbits/s speed=0.0117x elapsed=0:03:18.38    \nframe=  142 fps=0.7 q=51.0 size=     512KiB time=00:00:02.33 bitrate=1797.7kbits/s speed=0.0117x elapsed=0:03:18.90    \nframe=  142 fps=0.7 q=51.0 size=     512KiB time=00:00:02.33 bitrate=1797.7kbits/s speed=0.0117x elapsed=0:03:19.41    \nx265 [warning]: poc:140, VBV underflow (-10216 bits)\nframe=  143 fps=0.7 q=51.0 size=     512KiB time=00:00:02.35 bitrate=1785.0kbits/s speed=0.0118x elapsed=0:03:19.93    \nframe=  143 fps=0.7 q=51.0 size=     512KiB time=00:00:02.35 bitrate=1785.0kbits/s speed=0.0117x elapsed=0:03:20.45    \nx265 [warning]: poc:142, VBV underflow (-1048 bits)\nframe=  144 fps=0.7 q=51.0 size=     512KiB time=00:00:02.36 bitrate=1772.4kbits/s speed=0.0118x elapsed=0:03:20.96    \nframe=  144 fps=0.7 q=51.0 size=     512KiB time=00:00:02.36 bitrate=1772.4kbits/s speed=0.0117x elapsed=0:03:21.47    \nframe=  144 fps=0.7 q=51.0 size=     512KiB time=00:00:02.36 bitrate=1772.4kbits/s speed=0.0117x elapsed=0:03:21.99    \nframe=  144 fps=0.7 q=51.0 size=     512KiB time=00:00:02.36 bitrate=1772.4kbits/s speed=0.0117x elapsed=0:03:22.51    \nframe=  144 fps=0.7 q=51.0 size=     512KiB time=00:00:02.36 bitrate=1772.4kbits/s speed=0.0117x elapsed=0:03:23.04    \nx265 [warning]: poc:147, VBV underflow (-29512 bits)\nframe=  145 fps=0.7 q=51.0 size=     512KiB time=00:00:02.38 bitrate=1760.0kbits/s speed=0.0117x elapsed=0:03:23.57    \nx265 [warning]: poc:145, VBV underflow (-19256 bits)\nframe=  146 fps=0.7 q=51.0 size=     512KiB time=00:00:02.40 bitrate=1747.8kbits/s speed=0.0118x elapsed=0:03:24.09    \nx265 [warning]: poc:144, VBV underflow (-1080 bits)\nframe=  147 fps=0.7 q=51.0 size=     512KiB time=00:00:02.41 bitrate=1735.7kbits/s speed=0.0118x elapsed=0:03:24.65    \nframe=  147 fps=0.7 q=51.0 size=     512KiB time=00:00:02.41 bitrate=1735.7kbits/s speed=0.0118x elapsed=0:03:25.18    \nx265 [warning]: poc:146, VBV underflow (-1968 bits)\nframe=  148 fps=0.7 q=51.0 size=     512KiB time=00:00:02.43 bitrate=1723.8kbits/s speed=0.0118x elapsed=0:03:25.69    \nx265 [warning]: poc:151, VBV underflow (-29008 bits)\nframe=  149 fps=0.7 q=51.0 size=     512KiB time=00:00:02.45 bitrate=1712.1kbits/s speed=0.0119x elapsed=0:03:26.23    \nframe=  149 fps=0.7 q=51.0 size=     512KiB time=00:00:02.45 bitrate=1712.1kbits/s speed=0.0118x elapsed=0:03:26.78    \nframe=  149 fps=0.7 q=51.0 size=     512KiB time=00:00:02.45 bitrate=1712.1kbits/s speed=0.0118x elapsed=0:03:27.30    \nx265 [warning]: poc:149, VBV underflow (-19600 bits)\nframe=  150 fps=0.7 q=51.0 size=     512KiB time=00:00:02.46 bitrate=1700.5kbits/s speed=0.0119x elapsed=0:03:27.82    \nframe=  150 fps=0.7 q=51.0 size=     512KiB time=00:00:02.46 bitrate=1700.5kbits/s speed=0.0118x elapsed=0:03:28.34    \nx265 [warning]: poc:148, VBV underflow (-1256 bits)\nframe=  151 fps=0.7 q=51.0 size=     512KiB time=00:00:02.48 bitrate=1689.1kbits/s speed=0.0119x elapsed=0:03:28.85    \nframe=  151 fps=0.7 q=51.0 size=     512KiB time=00:00:02.48 bitrate=1689.1kbits/s speed=0.0119x elapsed=0:03:29.39    \nframe=  151 fps=0.7 q=51.0 size=     512KiB time=00:00:02.48 bitrate=1689.1kbits/s speed=0.0118x elapsed=0:03:29.94    \nx265 [warning]: poc:150, VBV underflow (-1480 bits)\nframe=  152 fps=0.7 q=51.0 size=     512KiB time=00:00:02.50 bitrate=1677.9kbits/s speed=0.0119x elapsed=0:03:30.46    \nframe=  152 fps=0.7 q=51.0 size=     512KiB time=00:00:02.50 bitrate=1677.9kbits/s speed=0.0118x elapsed=0:03:30.98    \nx265 [warning]: poc:155, VBV underflow (-29184 bits)\nx265 [warning]: poc:153, VBV underflow (-20864 bits)\nframe=  154 fps=0.7 q=51.0 size=     512KiB time=00:00:02.53 bitrate=1655.8kbits/s speed=0.012x elapsed=0:03:31.50    \nframe=  154 fps=0.7 q=51.0 size=     512KiB time=00:00:02.53 bitrate=1655.8kbits/s speed=0.0119x elapsed=0:03:32.04    \nframe=  154 fps=0.7 q=51.0 size=     512KiB time=00:00:02.53 bitrate=1655.8kbits/s speed=0.0119x elapsed=0:03:32.60    \nframe=  154 fps=0.7 q=51.0 size=     512KiB time=00:00:02.53 bitrate=1655.8kbits/s speed=0.0119x elapsed=0:03:33.13    \nx265 [warning]: poc:152, VBV underflow (-1232 bits)\nframe=  155 fps=0.7 q=51.0 size=     512KiB time=00:00:02.55 bitrate=1645.0kbits/s speed=0.0119x elapsed=0:03:33.68    \nframe=  155 fps=0.7 q=51.0 size=     512KiB time=00:00:02.55 bitrate=1645.0kbits/s speed=0.0119x elapsed=0:03:34.21    \nframe=  155 fps=0.7 q=51.0 size=     512KiB time=00:00:02.55 bitrate=1645.0kbits/s speed=0.0119x elapsed=0:03:34.74    \nx265 [warning]: poc:154, VBV underflow (-200 bits)\nx265 [warning]: poc:159, VBV underflow (-28464 bits)\nframe=  157 fps=0.7 q=51.0 size=     512KiB time=00:00:02.58 bitrate=1623.7kbits/s speed=0.012x elapsed=0:03:35.28    \nframe=  157 fps=0.7 q=51.0 size=     512KiB time=00:00:02.58 bitrate=1623.7kbits/s speed=0.012x elapsed=0:03:35.82    \nx265 [warning]: poc:157, VBV underflow (-19144 bits)\nframe=  158 fps=0.7 q=51.0 size=     512KiB time=00:00:02.60 bitrate=1613.3kbits/s speed=0.012x elapsed=0:03:36.34    \nframe=  158 fps=0.7 q=51.0 size=     512KiB time=00:00:02.60 bitrate=1613.3kbits/s speed=0.012x elapsed=0:03:36.89    \nframe=  158 fps=0.7 q=51.0 size=     512KiB time=00:00:02.60 bitrate=1613.3kbits/s speed=0.012x elapsed=0:03:37.42    \nx265 [warning]: poc:156, VBV underflow (-472 bits)\nframe=  160 fps=0.7 q=51.0 size=     512KiB time=00:00:02.63 bitrate=1592.9kbits/s speed=0.0121x elapsed=0:03:37.96    \nframe=  160 fps=0.7 q=51.0 size=     512KiB time=00:00:02.63 bitrate=1592.9kbits/s speed=0.0121x elapsed=0:03:38.49    \nframe=  160 fps=0.7 q=51.0 size=     512KiB time=00:00:02.63 bitrate=1592.9kbits/s speed=0.012x elapsed=0:03:39.01    \nx265 [warning]: poc:163, VBV underflow (-27040 bits)\nframe=  161 fps=0.7 q=51.0 size=     512KiB time=00:00:02.65 bitrate=1582.9kbits/s speed=0.0121x elapsed=0:03:39.53    \nx265 [warning]: poc:161, VBV underflow (-18504 bits)\nframe=  162 fps=0.7 q=51.0 size=     768KiB time=00:00:02.66 bitrate=2359.4kbits/s speed=0.0121x elapsed=0:03:40.05    \nframe=  162 fps=0.7 q=51.0 size=     768KiB time=00:00:02.66 bitrate=2359.4kbits/s speed=0.0121x elapsed=0:03:40.57    \nframe=  162 fps=0.7 q=51.0 size=     768KiB time=00:00:02.66 bitrate=2359.4kbits/s speed=0.0121x elapsed=0:03:41.10    \nframe=  163 fps=0.7 q=51.0 size=     768KiB time=00:00:02.68 bitrate=2344.8kbits/s speed=0.0121x elapsed=0:03:41.63    \nframe=  163 fps=0.7 q=51.0 size=     768KiB time=00:00:02.68 bitrate=2344.8kbits/s speed=0.0121x elapsed=0:03:42.14    \nframe=  163 fps=0.7 q=51.0 size=     768KiB time=00:00:02.68 bitrate=2344.8kbits/s speed=0.012x elapsed=0:03:42.69    \nframe=  164 fps=0.7 q=51.0 size=     768KiB time=00:00:02.70 bitrate=2330.3kbits/s speed=0.0121x elapsed=0:03:43.22    \nx265 [warning]: poc:167, VBV underflow (-29272 bits)\nframe=  165 fps=0.7 q=51.0 size=     768KiB time=00:00:02.71 bitrate=2316.0kbits/s speed=0.0121x elapsed=0:03:43.75    \nframe=  165 fps=0.7 q=51.0 size=     768KiB time=00:00:02.71 bitrate=2316.0kbits/s speed=0.0121x elapsed=0:03:44.29    \nx265 [warning]: poc:165, VBV underflow (-19448 bits)\nframe=  166 fps=0.7 q=51.0 size=     768KiB time=00:00:02.73 bitrate=2301.9kbits/s speed=0.0122x elapsed=0:03:44.81    \nframe=  166 fps=0.7 q=51.0 size=     768KiB time=00:00:02.73 bitrate=2301.9kbits/s speed=0.0121x elapsed=0:03:45.35    \nx265 [warning]: poc:164, VBV underflow (-1296 bits)\nframe=  167 fps=0.7 q=51.0 size=     768KiB time=00:00:02.75 bitrate=2287.9kbits/s speed=0.0122x elapsed=0:03:45.86    \nframe=  167 fps=0.7 q=51.0 size=     768KiB time=00:00:02.75 bitrate=2287.9kbits/s speed=0.0121x elapsed=0:03:46.41    \nx265 [warning]: poc:166, VBV underflow (-1040 bits)\nframe=  168 fps=0.7 q=51.0 size=     768KiB time=00:00:02.76 bitrate=2274.1kbits/s speed=0.0122x elapsed=0:03:46.95    \nx265 [warning]: poc:171, VBV underflow (-27016 bits)\nframe=  169 fps=0.7 q=51.0 size=     768KiB time=00:00:02.78 bitrate=2260.5kbits/s speed=0.0122x elapsed=0:03:47.45    \nx265 [warning]: poc:169, VBV underflow (-17696 bits)\nframe=  170 fps=0.7 q=51.0 size=     768KiB time=00:00:02.80 bitrate=2247.1kbits/s speed=0.0123x elapsed=0:03:48.00    \nframe=  170 fps=0.7 q=51.0 size=     768KiB time=00:00:02.80 bitrate=2247.1kbits/s speed=0.0122x elapsed=0:03:48.62    \nframe=  170 fps=0.7 q=51.0 size=     768KiB time=00:00:02.80 bitrate=2247.1kbits/s speed=0.0122x elapsed=0:03:49.15    \nframe=  170 fps=0.7 q=51.0 size=     768KiB time=00:00:02.80 bitrate=2247.1kbits/s speed=0.0122x elapsed=0:03:49.74    \nframe=  170 fps=0.7 q=51.0 size=     768KiB time=00:00:02.80 bitrate=2247.1kbits/s speed=0.0122x elapsed=0:03:50.29    \nframe=  170 fps=0.7 q=51.0 size=     768KiB time=00:00:02.80 bitrate=2247.1kbits/s speed=0.0121x elapsed=0:03:50.84    \nframe=  172 fps=0.7 q=51.0 size=     768KiB time=00:00:02.83 bitrate=2220.6kbits/s speed=0.0122x elapsed=0:03:51.36    \nx265 [warning]: poc:175, VBV underflow (-23080 bits)\nframe=  173 fps=0.7 q=51.0 size=     768KiB time=00:00:02.85 bitrate=2207.7kbits/s speed=0.0123x elapsed=0:03:51.88    \nframe=  173 fps=0.7 q=51.0 size=     768KiB time=00:00:02.85 bitrate=2207.7kbits/s speed=0.0123x elapsed=0:03:52.41    \nx265 [warning]: poc:173, VBV underflow (-16696 bits)\nframe=  174 fps=0.7 q=51.0 size=     768KiB time=00:00:02.86 bitrate=2194.8kbits/s speed=0.0123x elapsed=0:03:52.93    \nframe=  174 fps=0.7 q=51.0 size=     768KiB time=00:00:02.86 bitrate=2194.8kbits/s speed=0.0123x elapsed=0:03:53.47    \nframe=  174 fps=0.7 q=51.0 size=     768KiB time=00:00:02.86 bitrate=2194.8kbits/s speed=0.0123x elapsed=0:03:53.97    \nframe=  175 fps=0.7 q=51.0 size=     768KiB time=00:00:02.88 bitrate=2182.1kbits/s speed=0.0123x elapsed=0:03:54.50    \nframe=  176 fps=0.7 q=51.0 size=     768KiB time=00:00:02.90 bitrate=2169.6kbits/s speed=0.0123x elapsed=0:03:55.02    \nframe=  176 fps=0.7 q=51.0 size=     768KiB time=00:00:02.90 bitrate=2169.6kbits/s speed=0.0123x elapsed=0:03:55.55    \nframe=  176 fps=0.7 q=51.0 size=     768KiB time=00:00:02.90 bitrate=2169.6kbits/s speed=0.0123x elapsed=0:03:56.14    \nx265 [warning]: poc:180, VBV underflow (-24072 bits)\nframe=  177 fps=0.7 q=51.0 size=     768KiB time=00:00:02.91 bitrate=2157.2kbits/s speed=0.0123x elapsed=0:03:56.68    \nframe=  177 fps=0.7 q=51.0 size=     768KiB time=00:00:02.91 bitrate=2157.2kbits/s speed=0.0123x elapsed=0:03:57.24    \nx265 [warning]: poc:178, VBV underflow (-18664 bits)\nframe=  178 fps=0.7 q=51.0 size=     768KiB time=00:00:02.93 bitrate=2144.9kbits/s speed=0.0123x elapsed=0:03:57.78    \nframe=  178 fps=0.7 q=51.0 size=     768KiB time=00:00:02.93 bitrate=2144.9kbits/s speed=0.0123x elapsed=0:03:58.34    \nframe=  178 fps=0.7 q=51.0 size=     768KiB time=00:00:02.93 bitrate=2144.9kbits/s speed=0.0123x elapsed=0:03:58.92    \nx265 [warning]: poc:176, VBV underflow (-7360 bits)\nframe=  179 fps=0.7 q=51.0 size=     768KiB time=00:00:02.95 bitrate=2132.8kbits/s speed=0.0123x elapsed=0:03:59.48    \nframe=  179 fps=0.7 q=51.0 size=     768KiB time=00:00:02.95 bitrate=2132.8kbits/s speed=0.0123x elapsed=0:04:00.00    \nx265 [warning]: poc:177, VBV underflow (-6728 bits)\nframe=  180 fps=0.7 q=51.0 size=     768KiB time=00:00:02.96 bitrate=2120.8kbits/s speed=0.0123x elapsed=0:04:00.55    \nframe=  180 fps=0.7 q=51.0 size=     768KiB time=00:00:02.96 bitrate=2120.8kbits/s speed=0.0123x elapsed=0:04:01.08    \nframe=  180 fps=0.7 q=51.0 size=     768KiB time=00:00:02.96 bitrate=2120.8kbits/s speed=0.0123x elapsed=0:04:01.64    \nframe=  180 fps=0.7 q=51.0 size=     768KiB time=00:00:02.96 bitrate=2120.8kbits/s speed=0.0122x elapsed=0:04:02.21    \nframe=  181 fps=0.7 q=51.0 size=     768KiB time=00:00:02.96 bitrate=2120.8kbits/s speed=0.0122x elapsed=0:04:02.78    \nframe=  181 fps=0.7 q=51.0 size=     768KiB time=00:00:02.98 bitrate=2109.0kbits/s speed=0.0123x elapsed=0:04:03.36    \nframe=  181 fps=0.7 q=51.0 size=     768KiB time=00:00:02.98 bitrate=2109.0kbits/s speed=0.0122x elapsed=0:04:03.90    \nframe=  181 fps=0.7 q=51.0 size=     768KiB time=00:00:02.98 bitrate=2109.0kbits/s speed=0.0122x elapsed=0:04:04.51    \nframe=  181 fps=0.7 q=51.0 size=     768KiB time=00:00:02.98 bitrate=2109.0kbits/s speed=0.0122x elapsed=0:04:05.10    \nframe=  181 fps=0.7 q=51.0 size=     768KiB time=00:00:02.98 bitrate=2109.0kbits/s speed=0.0121x elapsed=0:04:05.71    \nframe=  181 fps=0.7 q=51.0 size=     768KiB time=00:00:02.98 bitrate=2109.0kbits/s speed=0.0121x elapsed=0:04:06.24    \nx265 [warning]: poc:184, VBV underflow (-23256 bits)\nframe=  182 fps=0.7 q=51.0 size=     768KiB time=00:00:03.00 bitrate=2097.3kbits/s speed=0.0122x elapsed=0:04:06.80    \nframe=  182 fps=0.7 q=51.0 size=     768KiB time=00:00:03.00 bitrate=2097.3kbits/s speed=0.0121x elapsed=0:04:07.42    \nframe=  182 fps=0.7 q=51.0 size=     768KiB time=00:00:03.00 bitrate=2097.3kbits/s speed=0.0121x elapsed=0:04:07.94    \nframe=  182 fps=0.7 q=51.0 size=     768KiB time=00:00:03.00 bitrate=2097.3kbits/s speed=0.0121x elapsed=0:04:08.51    \nx265 [warning]: poc:182, VBV underflow (-14800 bits)\nframe=  183 fps=0.7 q=51.0 size=     768KiB time=00:00:03.01 bitrate=2085.7kbits/s speed=0.0121x elapsed=0:04:09.08    \nframe=  183 fps=0.7 q=51.0 size=     768KiB time=00:00:03.01 bitrate=2085.7kbits/s speed=0.0121x elapsed=0:04:09.62    \nframe=  183 fps=0.7 q=51.0 size=     768KiB time=00:00:03.01 bitrate=2085.7kbits/s speed=0.0121x elapsed=0:04:10.15    \nframe=  183 fps=0.7 q=51.0 size=     768KiB time=00:00:03.01 bitrate=2085.7kbits/s speed=0.012x elapsed=0:04:10.73    \nframe=  184 fps=0.7 q=51.0 size=     768KiB time=00:00:03.03 bitrate=2074.2kbits/s speed=0.0121x elapsed=0:04:11.31    \nframe=  184 fps=0.7 q=51.0 size=     768KiB time=00:00:03.03 bitrate=2074.2kbits/s speed=0.012x elapsed=0:04:11.85    \nframe=  185 fps=0.7 q=51.0 size=     768KiB time=00:00:03.05 bitrate=2062.9kbits/s speed=0.0121x elapsed=0:04:12.37    \nframe=  185 fps=0.7 q=51.0 size=     768KiB time=00:00:03.05 bitrate=2062.9kbits/s speed=0.0121x elapsed=0:04:12.90    \nframe=  185 fps=0.7 q=51.0 size=     768KiB time=00:00:03.05 bitrate=2062.9kbits/s speed=0.012x elapsed=0:04:13.43    \nx265 [warning]: poc:188, VBV underflow (-22424 bits)\nframe=  186 fps=0.7 q=51.0 size=     768KiB time=00:00:03.06 bitrate=2051.7kbits/s speed=0.0121x elapsed=0:04:13.95    \nframe=  186 fps=0.7 q=51.0 size=     768KiB time=00:00:03.06 bitrate=2051.7kbits/s speed=0.0121x elapsed=0:04:14.49    \nframe=  186 fps=0.7 q=51.0 size=     768KiB time=00:00:03.06 bitrate=2051.7kbits/s speed=0.012x elapsed=0:04:15.05    \nframe=  186 fps=0.7 q=51.0 size=     768KiB time=00:00:03.06 bitrate=2051.7kbits/s speed=0.012x elapsed=0:04:15.66    \nx265 [warning]: poc:186, VBV underflow (-15968 bits)\nframe=  187 fps=0.7 q=51.0 size=     768KiB time=00:00:03.08 bitrate=2040.6kbits/s speed=0.012x elapsed=0:04:16.18    \nframe=  187 fps=0.7 q=51.0 size=     768KiB time=00:00:03.08 bitrate=2040.6kbits/s speed=0.012x elapsed=0:04:16.70    \nframe=  188 fps=0.7 q=51.0 size=     768KiB time=00:00:03.10 bitrate=2029.6kbits/s speed=0.0121x elapsed=0:04:17.21    \nframe=  189 fps=0.7 q=51.0 size=     768KiB time=00:00:03.11 bitrate=2018.8kbits/s speed=0.0121x elapsed=0:04:17.74    \nframe=  189 fps=0.7 q=51.0 size=     768KiB time=00:00:03.11 bitrate=2018.8kbits/s speed=0.0121x elapsed=0:04:18.26    \nframe=  189 fps=0.7 q=51.0 size=     768KiB time=00:00:03.11 bitrate=2018.8kbits/s speed=0.012x elapsed=0:04:18.80    \nframe=  189 fps=0.7 q=51.0 size=     768KiB time=00:00:03.11 bitrate=2018.8kbits/s speed=0.012x elapsed=0:04:19.32    \nx265 [warning]: poc:192, VBV underflow (-21776 bits)\nframe=  190 fps=0.7 q=51.0 size=     768KiB time=00:00:03.13 bitrate=2008.0kbits/s speed=0.0121x elapsed=0:04:19.83    \nframe=  190 fps=0.7 q=51.0 size=     768KiB time=00:00:03.13 bitrate=2008.0kbits/s speed=0.012x elapsed=0:04:20.35    \nx265 [warning]: poc:190, VBV underflow (-14576 bits)\nframe=  191 fps=0.7 q=51.0 size=     768KiB time=00:00:03.15 bitrate=1997.4kbits/s speed=0.0121x elapsed=0:04:20.89    \nframe=  192 fps=0.7 q=51.0 size=     768KiB time=00:00:03.16 bitrate=1986.9kbits/s speed=0.0121x elapsed=0:04:21.40    \nframe=  192 fps=0.7 q=51.0 size=     768KiB time=00:00:03.16 bitrate=1986.9kbits/s speed=0.0121x elapsed=0:04:21.92    \nframe=  193 fps=0.7 q=51.0 size=     768KiB time=00:00:03.18 bitrate=1976.5kbits/s speed=0.0121x elapsed=0:04:22.44    \nx265 [warning]: poc:196, VBV underflow (-18400 bits)\nframe=  194 fps=0.7 q=51.0 size=     768KiB time=00:00:03.20 bitrate=1966.2kbits/s speed=0.0122x elapsed=0:04:22.96    \nx265 [warning]: poc:194, VBV underflow (-13376 bits)\nframe=  195 fps=0.7 q=51.0 size=     768KiB time=00:00:03.21 bitrate=1956.0kbits/s speed=0.0122x elapsed=0:04:23.48    \nframe=  195 fps=0.7 q=51.0 size=     768KiB time=00:00:03.21 bitrate=1956.0kbits/s speed=0.0122x elapsed=0:04:24.04    \nframe=  196 fps=0.7 q=51.0 size=     768KiB time=00:00:03.23 bitrate=1945.9kbits/s speed=0.0122x elapsed=0:04:24.59    \nframe=  197 fps=0.7 q=51.0 size=     768KiB time=00:00:03.25 bitrate=1935.9kbits/s speed=0.0123x elapsed=0:04:25.11    \nframe=  197 fps=0.7 q=51.0 size=     768KiB time=00:00:03.25 bitrate=1935.9kbits/s speed=0.0122x elapsed=0:04:25.61    \nx265 [warning]: poc:200, VBV underflow (-16672 bits)\nframe=  198 fps=0.7 q=51.0 size=     768KiB time=00:00:03.26 bitrate=1926.1kbits/s speed=0.0123x elapsed=0:04:26.14    \nx265 [warning]: poc:198, VBV underflow (-11840 bits)\nframe=  199 fps=0.7 q=51.0 size=     768KiB time=00:00:03.28 bitrate=1916.3kbits/s speed=0.0123x elapsed=0:04:26.67    \nframe=  199 fps=0.7 q=51.0 size=     768KiB time=00:00:03.28 bitrate=1916.3kbits/s speed=0.0123x elapsed=0:04:27.18    \nframe=  200 fps=0.7 q=51.0 size=     768KiB time=00:00:03.30 bitrate=1906.6kbits/s speed=0.0123x elapsed=0:04:27.70    \nframe=  201 fps=0.7 q=51.0 size=     768KiB time=00:00:03.31 bitrate=1897.0kbits/s speed=0.0124x elapsed=0:04:28.23    \nx265 [warning]: poc:204, VBV underflow (-14744 bits)\nframe=  202 fps=0.8 q=51.0 size=     768KiB time=00:00:03.33 bitrate=1887.5kbits/s speed=0.0124x elapsed=0:04:28.76    \nframe=  202 fps=0.8 q=51.0 size=     768KiB time=00:00:03.33 bitrate=1887.5kbits/s speed=0.0124x elapsed=0:04:29.28    \nframe=  202 fps=0.7 q=51.0 size=     768KiB time=00:00:03.33 bitrate=1887.5kbits/s speed=0.0124x elapsed=0:04:29.81    \nx265 [warning]: poc:202, VBV underflow (-13464 bits)\nframe=  203 fps=0.8 q=51.0 size=     768KiB time=00:00:03.35 bitrate=1878.2kbits/s speed=0.0124x elapsed=0:04:30.37    \nframe=  204 fps=0.8 q=51.0 size=     768KiB time=00:00:03.36 bitrate=1868.9kbits/s speed=0.0124x elapsed=0:04:30.90    \nframe=  205 fps=0.8 q=51.0 size=     768KiB time=00:00:03.38 bitrate=1859.6kbits/s speed=0.0125x elapsed=0:04:31.43    \nframe=  205 fps=0.8 q=51.0 size=     768KiB time=00:00:03.38 bitrate=1859.6kbits/s speed=0.0124x elapsed=0:04:31.95    \nx265 [warning]: poc:208, VBV underflow (-13888 bits)\nx265 [warning]: poc:206, VBV underflow (-12528 bits)\nframe=  207 fps=0.8 q=51.0 size=     768KiB time=00:00:03.41 bitrate=1841.5kbits/s speed=0.0125x elapsed=0:04:32.48    \nframe=  207 fps=0.8 q=51.0 size=     768KiB time=00:00:03.41 bitrate=1841.5kbits/s speed=0.0125x elapsed=0:04:33.00    \nframe=  208 fps=0.8 q=51.0 size=     768KiB time=00:00:03.43 bitrate=1832.6kbits/s speed=0.0126x elapsed=0:04:33.52    \nx265 [warning]: poc:212, VBV underflow (-14136 bits)\nframe=  210 fps=0.8 q=51.0 size=     768KiB time=00:00:03.46 bitrate=1814.9kbits/s speed=0.0126x elapsed=0:04:34.04    \nframe=  210 fps=0.8 q=51.0 size=     768KiB time=00:00:03.46 bitrate=1814.9kbits/s speed=0.0126x elapsed=0:04:34.60    \nframe=  210 fps=0.8 q=51.0 size=     768KiB time=00:00:03.46 bitrate=1814.9kbits/s speed=0.0126x elapsed=0:04:35.15    \nx265 [warning]: poc:210, VBV underflow (-12200 bits)\nframe=  212 fps=0.8 q=51.0 size=     768KiB time=00:00:03.50 bitrate=1797.7kbits/s speed=0.0127x elapsed=0:04:35.69    \nframe=  212 fps=0.8 q=51.0 size=     768KiB time=00:00:03.50 bitrate=1797.7kbits/s speed=0.0127x elapsed=0:04:36.19    \nframe=  212 fps=0.8 q=51.0 size=     768KiB time=00:00:03.50 bitrate=1797.7kbits/s speed=0.0126x elapsed=0:04:36.70    \nframe=  212 fps=0.8 q=51.0 size=     768KiB time=00:00:03.50 bitrate=1797.7kbits/s speed=0.0126x elapsed=0:04:37.22    \nframe=  213 fps=0.8 q=51.0 size=     768KiB time=00:00:03.51 bitrate=1789.1kbits/s speed=0.0127x elapsed=0:04:37.76    \nframe=  213 fps=0.8 q=51.0 size=     768KiB time=00:00:03.51 bitrate=1789.1kbits/s speed=0.0126x elapsed=0:04:38.29    \nx265 [warning]: poc:216, VBV underflow (-12496 bits)\nx265 [warning]: poc:214, VBV underflow (-12064 bits)\nframe=  215 fps=0.8 q=51.0 size=     768KiB time=00:00:03.55 bitrate=1772.3kbits/s speed=0.0127x elapsed=0:04:38.80    \nframe=  215 fps=0.8 q=51.0 size=     768KiB time=00:00:03.55 bitrate=1772.3kbits/s speed=0.0127x elapsed=0:04:39.32    \nframe=  215 fps=0.8 q=51.0 size=     768KiB time=00:00:03.55 bitrate=1772.3kbits/s speed=0.0127x elapsed=0:04:39.87    \nframe=  215 fps=0.8 q=51.0 size=     768KiB time=00:00:03.55 bitrate=1772.3kbits/s speed=0.0127x elapsed=0:04:40.40    \nframe=  215 fps=0.8 q=51.0 size=     768KiB time=00:00:03.55 bitrate=1772.3kbits/s speed=0.0126x elapsed=0:04:40.96    \nframe=  216 fps=0.8 q=51.0 size=     768KiB time=00:00:03.56 bitrate=1764.1kbits/s speed=0.0127x elapsed=0:04:41.50    \nframe=  217 fps=0.8 q=51.0 size=     768KiB time=00:00:03.58 bitrate=1755.9kbits/s speed=0.0127x elapsed=0:04:42.01    \nframe=  217 fps=0.8 q=51.0 size=     768KiB time=00:00:03.58 bitrate=1755.9kbits/s speed=0.0127x elapsed=0:04:42.55    \nframe=  217 fps=0.8 q=51.0 size=     768KiB time=00:00:03.58 bitrate=1755.9kbits/s speed=0.0127x elapsed=0:04:43.09    \nframe=  217 fps=0.8 q=51.0 size=     768KiB time=00:00:03.58 bitrate=1755.9kbits/s speed=0.0126x elapsed=0:04:43.63    \nx265 [warning]: poc:220, VBV underflow (-8776 bits)\nframe=  218 fps=0.8 q=51.0 size=     768KiB time=00:00:03.60 bitrate=1747.7kbits/s speed=0.0127x elapsed=0:04:44.15    \nx265 [warning]: poc:218, VBV underflow (-8312 bits)\nframe=  219 fps=0.8 q=51.0 size=     768KiB time=00:00:03.61 bitrate=1739.7kbits/s speed=0.0127x elapsed=0:04:44.69    \nframe=  220 fps=0.8 q=51.0 size=     768KiB time=00:00:03.63 bitrate=1731.7kbits/s speed=0.0127x elapsed=0:04:45.22    \nframe=  220 fps=0.8 q=51.0 size=     768KiB time=00:00:03.63 bitrate=1731.7kbits/s speed=0.0127x elapsed=0:04:45.74    \nframe=  220 fps=0.8 q=51.0 size=     768KiB time=00:00:03.63 bitrate=1731.7kbits/s speed=0.0127x elapsed=0:04:46.28    \nframe=  221 fps=0.8 q=51.0 size=     768KiB time=00:00:03.65 bitrate=1723.8kbits/s speed=0.0127x elapsed=0:04:46.83    \nframe=  221 fps=0.8 q=51.0 size=     768KiB time=00:00:03.65 bitrate=1723.8kbits/s speed=0.0127x elapsed=0:04:47.35    \nx265 [warning]: poc:224, VBV underflow (-7288 bits)\nframe=  222 fps=0.8 q=51.0 size=     768KiB time=00:00:03.66 bitrate=1715.9kbits/s speed=0.0127x elapsed=0:04:47.88    \nframe=  222 fps=0.8 q=51.0 size=     768KiB time=00:00:03.66 bitrate=1715.9kbits/s speed=0.0127x elapsed=0:04:48.40    \nframe=  222 fps=0.8 q=51.0 size=     768KiB time=00:00:03.66 bitrate=1715.9kbits/s speed=0.0127x elapsed=0:04:48.93    \nx265 [warning]: poc:222, VBV underflow (-8440 bits)\nframe=  223 fps=0.8 q=51.0 size=     768KiB time=00:00:03.68 bitrate=1708.2kbits/s speed=0.0127x elapsed=0:04:49.48    \nframe=  223 fps=0.8 q=51.0 size=     768KiB time=00:00:03.68 bitrate=1708.2kbits/s speed=0.0127x elapsed=0:04:50.02    \nframe=  223 fps=0.8 q=51.0 size=     768KiB time=00:00:03.68 bitrate=1708.2kbits/s speed=0.0127x elapsed=0:04:50.55    \nframe=  224 fps=0.8 q=51.0 size=    1024KiB time=00:00:03.70 bitrate=2267.3kbits/s speed=0.0127x elapsed=0:04:51.06    \nframe=  225 fps=0.8 q=51.0 size=    1024KiB time=00:00:03.71 bitrate=2257.1kbits/s speed=0.0127x elapsed=0:04:51.60    \nframe=  225 fps=0.8 q=51.0 size=    1024KiB time=00:00:03.71 bitrate=2257.1kbits/s speed=0.0127x elapsed=0:04:52.14    \nx265 [warning]: poc:228, VBV underflow (-4736 bits)\nframe=  226 fps=0.8 q=51.0 size=    1024KiB time=00:00:03.73 bitrate=2247.0kbits/s speed=0.0128x elapsed=0:04:52.67    \nframe=  226 fps=0.8 q=51.0 size=    1024KiB time=00:00:03.73 bitrate=2247.0kbits/s speed=0.0127x elapsed=0:04:53.22    \nframe=  226 fps=0.8 q=51.0 size=    1024KiB time=00:00:03.73 bitrate=2247.0kbits/s speed=0.0127x elapsed=0:04:53.78    \nx265 [warning]: poc:226, VBV underflow (-9440 bits)\nframe=  227 fps=0.8 q=51.0 size=    1024KiB time=00:00:03.75 bitrate=2237.1kbits/s speed=0.0127x elapsed=0:04:54.30    \nframe=  227 fps=0.8 q=51.0 size=    1024KiB time=00:00:03.75 bitrate=2237.1kbits/s speed=0.0127x elapsed=0:04:54.87    \nframe=  227 fps=0.8 q=51.0 size=    1024KiB time=00:00:03.75 bitrate=2237.1kbits/s speed=0.0127x elapsed=0:04:55.44    \nframe=  227 fps=0.8 q=51.0 size=    1024KiB time=00:00:03.75 bitrate=2237.1kbits/s speed=0.0127x elapsed=0:04:56.06    \nframe=  227 fps=0.8 q=51.0 size=    1024KiB time=00:00:03.75 bitrate=2237.1kbits/s speed=0.0126x elapsed=0:04:56.64    \nframe=  227 fps=0.8 q=51.0 size=    1024KiB time=00:00:03.75 bitrate=2237.1kbits/s speed=0.0126x elapsed=0:04:57.19    \nframe=  227 fps=0.8 q=51.0 size=    1024KiB time=00:00:03.75 bitrate=2237.1kbits/s speed=0.0126x elapsed=0:04:57.76    \nframe=  228 fps=0.8 q=51.0 size=    1024KiB time=00:00:03.76 bitrate=2227.2kbits/s speed=0.0126x elapsed=0:04:58.31    \nframe=  228 fps=0.8 q=51.0 size=    1024KiB time=00:00:03.76 bitrate=2227.2kbits/s speed=0.0126x elapsed=0:04:58.88    \nframe=  228 fps=0.8 q=51.0 size=    1024KiB time=00:00:03.76 bitrate=2227.2kbits/s speed=0.0126x elapsed=0:04:59.47    \nframe=  228 fps=0.8 q=51.0 size=    1024KiB time=00:00:03.76 bitrate=2227.2kbits/s speed=0.0126x elapsed=0:05:00.04    \nx265 [warning]: poc:233, VBV underflow (-8712 bits)\nframe=  230 fps=0.8 q=51.0 size=    1024KiB time=00:00:03.80 bitrate=2207.6kbits/s speed=0.0126x elapsed=0:05:00.56    \nframe=  230 fps=0.8 q=51.0 size=    1024KiB time=00:00:03.80 bitrate=2207.6kbits/s speed=0.0126x elapsed=0:05:01.09    \nframe=  230 fps=0.8 q=51.0 size=    1024KiB time=00:00:03.80 bitrate=2207.6kbits/s speed=0.0126x elapsed=0:05:01.63    \nx265 [warning]: poc:231, VBV underflow (-12336 bits)\nframe=  231 fps=0.8 q=51.0 size=    1024KiB time=00:00:03.81 bitrate=2198.0kbits/s speed=0.0126x elapsed=0:05:02.18    \nframe=  231 fps=0.8 q=51.0 size=    1024KiB time=00:00:03.81 bitrate=2198.0kbits/s speed=0.0126x elapsed=0:05:02.71    \nframe=  231 fps=0.8 q=51.0 size=    1024KiB time=00:00:03.81 bitrate=2198.0kbits/s speed=0.0126x elapsed=0:05:03.27    \nframe=  231 fps=0.8 q=51.0 size=    1024KiB time=00:00:03.81 bitrate=2198.0kbits/s speed=0.0126x elapsed=0:05:03.89    \nframe=  231 fps=0.8 q=51.0 size=    1024KiB time=00:00:03.81 bitrate=2198.0kbits/s speed=0.0125x elapsed=0:05:04.41    \nx265 [warning]: poc:230, VBV underflow (-768 bits)\nframe=  233 fps=0.8 q=51.0 size=    1024KiB time=00:00:03.85 bitrate=2179.0kbits/s speed=0.0126x elapsed=0:05:04.96    \nframe=  233 fps=0.8 q=51.0 size=    1024KiB time=00:00:03.85 bitrate=2179.0kbits/s speed=0.0126x elapsed=0:05:05.58    \nframe=  233 fps=0.8 q=51.0 size=    1024KiB time=00:00:03.85 bitrate=2179.0kbits/s speed=0.0126x elapsed=0:05:06.15    \nframe=  233 fps=0.8 q=51.0 size=    1024KiB time=00:00:03.85 bitrate=2179.0kbits/s speed=0.0126x elapsed=0:05:06.71    \nframe=  233 fps=0.8 q=51.0 size=    1024KiB time=00:00:03.85 bitrate=2179.0kbits/s speed=0.0125x elapsed=0:05:07.25    \nframe=  233 fps=0.8 q=51.0 size=    1024KiB time=00:00:03.85 bitrate=2179.0kbits/s speed=0.0125x elapsed=0:05:07.84    \nframe=  233 fps=0.8 q=51.0 size=    1024KiB time=00:00:03.85 bitrate=2179.0kbits/s speed=0.0125x elapsed=0:05:08.40    \nframe=  233 fps=0.8 q=51.0 size=    1024KiB time=00:00:03.85 bitrate=2179.0kbits/s speed=0.0125x elapsed=0:05:08.95    \nframe=  234 fps=0.8 q=51.0 size=    1024KiB time=00:00:03.86 bitrate=2169.6kbits/s speed=0.0125x elapsed=0:05:09.52    \nframe=  234 fps=0.8 q=51.0 size=    1024KiB time=00:00:03.86 bitrate=2169.6kbits/s speed=0.0125x elapsed=0:05:10.09    \nx265 [warning]: poc:237, VBV underflow (-11920 bits)\nframe=  235 fps=0.8 q=51.0 size=    1024KiB time=00:00:03.88 bitrate=2160.2kbits/s speed=0.0125x elapsed=0:05:10.66    \nframe=  235 fps=0.8 q=51.0 size=    1024KiB time=00:00:03.88 bitrate=2160.2kbits/s speed=0.0125x elapsed=0:05:11.19    \nframe=  235 fps=0.8 q=51.0 size=    1024KiB time=00:00:03.88 bitrate=2160.2kbits/s speed=0.0125x elapsed=0:05:11.74    \nframe=  235 fps=0.8 q=51.0 size=    1024KiB time=00:00:03.88 bitrate=2160.2kbits/s speed=0.0124x elapsed=0:05:12.29    \nframe=  235 fps=0.8 q=51.0 size=    1024KiB time=00:00:03.88 bitrate=2160.2kbits/s speed=0.0124x elapsed=0:05:12.80    \nframe=  235 fps=0.7 q=51.0 size=    1024KiB time=00:00:03.88 bitrate=2160.2kbits/s speed=0.0124x elapsed=0:05:13.34    \nx265 [warning]: poc:235, VBV underflow (-8528 bits)\nframe=  236 fps=0.8 q=51.0 size=    1024KiB time=00:00:03.90 bitrate=2151.0kbits/s speed=0.0124x elapsed=0:05:13.89    \nframe=  236 fps=0.8 q=51.0 size=    1024KiB time=00:00:03.90 bitrate=2151.0kbits/s speed=0.0124x elapsed=0:05:14.48    \nframe=  237 fps=0.8 q=51.0 size=    1024KiB time=00:00:03.91 bitrate=2141.9kbits/s speed=0.0124x elapsed=0:05:15.02    \nframe=  237 fps=0.8 q=51.0 size=    1024KiB time=00:00:03.91 bitrate=2141.9kbits/s speed=0.0124x elapsed=0:05:15.55    \nframe=  238 fps=0.8 q=51.0 size=    1024KiB time=00:00:03.93 bitrate=2132.8kbits/s speed=0.0124x elapsed=0:05:16.09    \nx265 [warning]: poc:241, VBV underflow (-5240 bits)\nframe=  239 fps=0.8 q=51.0 size=    1024KiB time=00:00:03.95 bitrate=2123.8kbits/s speed=0.0125x elapsed=0:05:16.64    \nframe=  239 fps=0.8 q=51.0 size=    1024KiB time=00:00:03.95 bitrate=2123.8kbits/s speed=0.0125x elapsed=0:05:17.20    \nframe=  239 fps=0.8 q=51.0 size=    1024KiB time=00:00:03.95 bitrate=2123.8kbits/s speed=0.0124x elapsed=0:05:17.78    \nx265 [warning]: poc:239, VBV underflow (-7808 bits)\nframe=  240 fps=0.8 q=51.0 size=    1024KiB time=00:00:03.96 bitrate=2114.9kbits/s speed=0.0125x elapsed=0:05:18.34    \nframe=  240 fps=0.8 q=51.0 size=    1024KiB time=00:00:03.96 bitrate=2114.9kbits/s speed=0.0124x elapsed=0:05:18.91    \nframe=  240 fps=0.8 q=51.0 size=    1024KiB time=00:00:03.96 bitrate=2114.9kbits/s speed=0.0124x elapsed=0:05:19.43    \nframe=  240 fps=0.8 q=51.0 size=    1024KiB time=00:00:03.96 bitrate=2114.9kbits/s speed=0.0124x elapsed=0:05:19.99    \nframe=  240 fps=0.7 q=51.0 size=    1024KiB time=00:00:03.96 bitrate=2114.9kbits/s speed=0.0124x elapsed=0:05:20.51    \nframe=  241 fps=0.8 q=51.0 size=    1024KiB time=00:00:03.98 bitrate=2106.0kbits/s speed=0.0124x elapsed=0:05:21.07    \nframe=  242 fps=0.8 q=51.0 size=    1024KiB time=00:00:04.00 bitrate=2097.2kbits/s speed=0.0124x elapsed=0:05:21.65    \nframe=  242 fps=0.8 q=51.0 size=    1024KiB time=00:00:04.00 bitrate=2097.2kbits/s speed=0.0124x elapsed=0:05:22.19    \nframe=  242 fps=0.7 q=51.0 size=    1024KiB time=00:00:04.00 bitrate=2097.2kbits/s speed=0.0124x elapsed=0:05:22.73    \nframe=  242 fps=0.7 q=51.0 size=    1024KiB time=00:00:04.00 bitrate=2097.2kbits/s speed=0.0124x elapsed=0:05:23.27    \nx265 [warning]: poc:245, VBV underflow (-3808 bits)\nframe=  243 fps=0.8 q=51.0 size=    1024KiB time=00:00:04.01 bitrate=2088.5kbits/s speed=0.0124x elapsed=0:05:23.80    \nframe=  243 fps=0.7 q=51.0 size=    1024KiB time=00:00:04.01 bitrate=2088.5kbits/s speed=0.0124x elapsed=0:05:24.33    \nframe=  243 fps=0.7 q=51.0 size=    1024KiB time=00:00:04.01 bitrate=2088.5kbits/s speed=0.0124x elapsed=0:05:24.91    \nframe=  243 fps=0.7 q=51.0 size=    1024KiB time=00:00:04.01 bitrate=2088.5kbits/s speed=0.0123x elapsed=0:05:25.46    \nx265 [warning]: poc:243, VBV underflow (-7744 bits)\nframe=  245 fps=0.8 q=51.0 size=    1024KiB time=00:00:04.05 bitrate=2071.3kbits/s speed=0.0124x elapsed=0:05:25.99    \nframe=  245 fps=0.8 q=51.0 size=    1024KiB time=00:00:04.05 bitrate=2071.3kbits/s speed=0.0124x elapsed=0:05:26.54    \nframe=  246 fps=0.8 q=51.0 size=    1024KiB time=00:00:04.06 bitrate=2062.9kbits/s speed=0.0124x elapsed=0:05:27.06    \nframe=  246 fps=0.8 q=51.0 size=    1024KiB time=00:00:04.06 bitrate=2062.9kbits/s speed=0.0124x elapsed=0:05:27.68    \nframe=  246 fps=0.7 q=51.0 size=    1024KiB time=00:00:04.06 bitrate=2062.9kbits/s speed=0.0124x elapsed=0:05:28.26    \nframe=  246 fps=0.7 q=51.0 size=    1024KiB time=00:00:04.06 bitrate=2062.9kbits/s speed=0.0124x elapsed=0:05:28.82    \nx265 [warning]: poc:249, VBV underflow (-3176 bits)\nframe=  247 fps=0.7 q=51.0 size=    1024KiB time=00:00:04.08 bitrate=2054.4kbits/s speed=0.0124x elapsed=0:05:29.37    \nframe=  247 fps=0.7 q=51.0 size=    1024KiB time=00:00:04.08 bitrate=2054.4kbits/s speed=0.0124x elapsed=0:05:29.90    \nframe=  247 fps=0.7 q=51.0 size=    1024KiB time=00:00:04.08 bitrate=2054.4kbits/s speed=0.0124x elapsed=0:05:30.44    \nx265 [warning]: poc:247, VBV underflow (-6440 bits)\nframe=  248 fps=0.7 q=51.0 size=    1024KiB time=00:00:04.10 bitrate=2046.1kbits/s speed=0.0124x elapsed=0:05:30.96    \nframe=  248 fps=0.7 q=51.0 size=    1024KiB time=00:00:04.10 bitrate=2046.1kbits/s speed=0.0124x elapsed=0:05:31.49    \nframe=  248 fps=0.7 q=51.0 size=    1024KiB time=00:00:04.10 bitrate=2046.1kbits/s speed=0.0123x elapsed=0:05:32.03    \nframe=  249 fps=0.7 q=51.0 size=    1024KiB time=00:00:04.11 bitrate=2037.8kbits/s speed=0.0124x elapsed=0:05:32.54    \nframe=  249 fps=0.7 q=51.0 size=    1024KiB time=00:00:04.11 bitrate=2037.8kbits/s speed=0.0124x elapsed=0:05:33.07    \nframe=  249 fps=0.7 q=51.0 size=    1024KiB time=00:00:04.11 bitrate=2037.8kbits/s speed=0.0123x elapsed=0:05:33.60    \nframe=  249 fps=0.7 q=51.0 size=    1024KiB time=00:00:04.11 bitrate=2037.8kbits/s speed=0.0123x elapsed=0:05:34.16    \nx265 [warning]: poc:250, VBV underflow (-1592 bits)\nframe=  251 fps=0.7 q=51.0 size=    1024KiB time=00:00:04.15 bitrate=2021.4kbits/s speed=0.0124x elapsed=0:05:34.74    \nframe=  251 fps=0.7 q=51.0 size=    1024KiB time=00:00:04.15 bitrate=2021.4kbits/s speed=0.0124x elapsed=0:05:35.28    \nframe=  251 fps=0.7 q=51.0 size=    1024KiB time=00:00:04.15 bitrate=2021.4kbits/s speed=0.0124x elapsed=0:05:35.83    \nframe=  251 fps=0.7 q=51.0 size=    1024KiB time=00:00:04.15 bitrate=2021.4kbits/s speed=0.0123x elapsed=0:05:36.38    \nframe=  251 fps=0.7 q=51.0 size=    1024KiB time=00:00:04.15 bitrate=2021.4kbits/s speed=0.0123x elapsed=0:05:36.93    \nx265 [warning]: poc:254, VBV underflow (-18360 bits)\nframe=  252 fps=0.7 q=51.0 size=    1024KiB time=00:00:04.16 bitrate=2013.4kbits/s speed=0.0123x elapsed=0:05:37.51    \nx265 [warning]: poc:252, VBV underflow (-5432 bits)\nframe=  253 fps=0.7 q=51.0 size=    1024KiB time=00:00:04.18 bitrate=2005.3kbits/s speed=0.0124x elapsed=0:05:38.04    \nframe=  253 fps=0.7 q=51.0 size=    1024KiB time=00:00:04.18 bitrate=2005.3kbits/s speed=0.0124x elapsed=0:05:38.56    \nframe=  253 fps=0.7 q=51.0 size=    1024KiB time=00:00:04.18 bitrate=2005.3kbits/s speed=0.0123x elapsed=0:05:39.12    \nframe=  254 fps=0.7 q=51.0 size=    1024KiB time=00:00:04.18 bitrate=2005.3kbits/s speed=0.0123x elapsed=0:05:39.70    \nframe=  254 fps=0.7 q=51.0 size=    1024KiB time=00:00:04.20 bitrate=1997.4kbits/s speed=0.0123x elapsed=0:05:40.29    \nframe=  254 fps=0.7 q=51.0 size=    1024KiB time=00:00:04.20 bitrate=1997.4kbits/s speed=0.0123x elapsed=0:05:40.87    \nframe=  255 fps=0.7 q=51.0 size=    1024KiB time=00:00:04.21 bitrate=1989.5kbits/s speed=0.0123x elapsed=0:05:41.43    \nframe=  255 fps=0.7 q=51.0 size=    1024KiB time=00:00:04.21 bitrate=1989.5kbits/s speed=0.0123x elapsed=0:05:41.96    \nframe=  255 fps=0.7 q=51.0 size=    1024KiB time=00:00:04.21 bitrate=1989.5kbits/s speed=0.0123x elapsed=0:05:42.48    \nframe=  255 fps=0.7 q=51.0 size=    1024KiB time=00:00:04.21 bitrate=1989.5kbits/s speed=0.0123x elapsed=0:05:43.09    \nframe=  256 fps=0.7 q=51.0 size=    1024KiB time=00:00:04.23 bitrate=1981.6kbits/s speed=0.0123x elapsed=0:05:43.65    \nframe=  256 fps=0.7 q=51.0 size=    1024KiB time=00:00:04.23 bitrate=1981.6kbits/s speed=0.0123x elapsed=0:05:44.27    \nframe=  256 fps=0.7 q=51.0 size=    1024KiB time=00:00:04.23 bitrate=1981.6kbits/s speed=0.0123x elapsed=0:05:44.88    \nx265 [warning]: poc:257, VBV underflow (-8656 bits)\nframe=  257 fps=0.7 q=51.0 size=    1024KiB time=00:00:04.25 bitrate=1973.9kbits/s speed=0.0123x elapsed=0:05:45.43    \nframe=  257 fps=0.7 q=51.0 size=    1024KiB time=00:00:04.25 bitrate=1973.9kbits/s speed=0.0123x elapsed=0:05:46.00    \nframe=  257 fps=0.7 q=51.0 size=    1024KiB time=00:00:04.25 bitrate=1973.9kbits/s speed=0.0123x elapsed=0:05:46.58    \nframe=  257 fps=0.7 q=51.0 size=    1024KiB time=00:00:04.25 bitrate=1973.9kbits/s speed=0.0122x elapsed=0:05:47.11    \nframe=  258 fps=0.7 q=51.0 size=    1024KiB time=00:00:04.26 bitrate=1966.2kbits/s speed=0.0123x elapsed=0:05:47.65    \nframe=  258 fps=0.7 q=51.0 size=    1024KiB time=00:00:04.26 bitrate=1966.2kbits/s speed=0.0123x elapsed=0:05:48.20    \nframe=  258 fps=0.7 q=51.0 size=    1024KiB time=00:00:04.26 bitrate=1966.2kbits/s speed=0.0122x elapsed=0:05:48.73    \nframe=  258 fps=0.7 q=51.0 size=    1024KiB time=00:00:04.26 bitrate=1966.2kbits/s speed=0.0122x elapsed=0:05:49.27    \nframe=  259 fps=0.7 q=51.0 size=    1024KiB time=00:00:04.28 bitrate=1958.5kbits/s speed=0.0122x elapsed=0:05:49.80    \nframe=  260 fps=0.7 q=51.0 size=    1024KiB time=00:00:04.30 bitrate=1950.9kbits/s speed=0.0123x elapsed=0:05:50.33    \nframe=  261 fps=0.7 q=51.0 size=    1024KiB time=00:00:04.31 bitrate=1943.4kbits/s speed=0.0123x elapsed=0:05:50.88    \nframe=  261 fps=0.7 q=51.0 size=    1024KiB time=00:00:04.31 bitrate=1943.4kbits/s speed=0.0123x elapsed=0:05:51.44    \nframe=  261 fps=0.7 q=51.0 size=    1024KiB time=00:00:04.31 bitrate=1943.4kbits/s speed=0.0123x elapsed=0:05:51.97    \nframe=  261 fps=0.7 q=51.0 size=    1024KiB time=00:00:04.31 bitrate=1943.4kbits/s speed=0.0122x elapsed=0:05:52.51    \nx265 [warning]: poc:261, VBV underflow (-3352 bits)\nframe=  262 fps=0.7 q=51.0 size=    1024KiB time=00:00:04.33 bitrate=1935.9kbits/s speed=0.0123x elapsed=0:05:53.06    \nframe=  262 fps=0.7 q=51.0 size=    1024KiB time=00:00:04.33 bitrate=1935.9kbits/s speed=0.0123x elapsed=0:05:53.62    \nframe=  262 fps=0.7 q=51.0 size=    1024KiB time=00:00:04.33 bitrate=1935.9kbits/s speed=0.0122x elapsed=0:05:54.14    \nframe=  264 fps=0.7 q=51.0 size=    1024KiB time=00:00:04.36 bitrate=1921.1kbits/s speed=0.0123x elapsed=0:05:54.64    \nframe=  264 fps=0.7 q=51.0 size=    1024KiB time=00:00:04.36 bitrate=1921.1kbits/s speed=0.0123x elapsed=0:05:55.16    \nframe=  265 fps=0.7 q=51.0 size=    1024KiB time=00:00:04.38 bitrate=1913.8kbits/s speed=0.0123x elapsed=0:05:55.68    \nframe=  266 fps=0.7 q=51.0 size=    1024KiB time=00:00:04.40 bitrate=1906.6kbits/s speed=0.0124x elapsed=0:05:56.19    \nframe=  267 fps=0.7 q=51.0 size=    1024KiB time=00:00:04.41 bitrate=1899.4kbits/s speed=0.0124x elapsed=0:05:56.71    \nframe=  267 fps=0.7 q=51.0 size=    1024KiB time=00:00:04.41 bitrate=1899.4kbits/s speed=0.0124x elapsed=0:05:57.23    \nframe=  267 fps=0.7 q=51.0 size=    1024KiB time=00:00:04.41 bitrate=1899.4kbits/s speed=0.0123x elapsed=0:05:57.84    \nframe=  268 fps=0.7 q=51.0 size=    1024KiB time=00:00:04.43 bitrate=1892.2kbits/s speed=0.0124x elapsed=0:05:58.37    \nframe=  269 fps=0.7 q=51.0 size=    1024KiB time=00:00:04.45 bitrate=1885.2kbits/s speed=0.0124x elapsed=0:05:58.89    \nframe=  269 fps=0.7 q=51.0 size=    1024KiB time=00:00:04.45 bitrate=1885.2kbits/s speed=0.0124x elapsed=0:05:59.41    \nframe=  270 fps=0.8 q=51.0 size=    1024KiB time=00:00:04.46 bitrate=1878.1kbits/s speed=0.0124x elapsed=0:05:59.93    \nframe=  270 fps=0.7 q=51.0 size=    1024KiB time=00:00:04.46 bitrate=1878.1kbits/s speed=0.0124x elapsed=0:06:00.45    \nframe=  271 fps=0.8 q=51.0 size=    1024KiB time=00:00:04.48 bitrate=1871.1kbits/s speed=0.0124x elapsed=0:06:00.99    \nframe=  272 fps=0.8 q=51.0 size=    1024KiB time=00:00:04.50 bitrate=1864.2kbits/s speed=0.0124x elapsed=0:06:01.53    \nframe=  273 fps=0.8 q=51.0 size=    1024KiB time=00:00:04.51 bitrate=1857.3kbits/s speed=0.0125x elapsed=0:06:02.07    \nframe=  273 fps=0.8 q=51.0 size=    1024KiB time=00:00:04.51 bitrate=1857.3kbits/s speed=0.0125x elapsed=0:06:02.63    \nframe=  273 fps=0.8 q=51.0 size=    1024KiB time=00:00:04.51 bitrate=1857.3kbits/s speed=0.0124x elapsed=0:06:03.17    \nframe=  274 fps=0.8 q=51.0 size=    1024KiB time=00:00:04.51 bitrate=1857.3kbits/s speed=0.0124x elapsed=0:06:03.72    \nframe=  275 fps=0.8 q=51.0 size=    1024KiB time=00:00:04.55 bitrate=1843.7kbits/s speed=0.0125x elapsed=0:06:04.27    \nframe=  275 fps=0.8 q=51.0 size=    1024KiB time=00:00:04.55 bitrate=1843.7kbits/s speed=0.0125x elapsed=0:06:04.80    \nframe=  276 fps=0.8 q=51.0 size=    1024KiB time=00:00:04.56 bitrate=1837.0kbits/s speed=0.0125x elapsed=0:06:05.34    \nframe=  277 fps=0.8 q=51.0 size=    1024KiB time=00:00:04.58 bitrate=1830.3kbits/s speed=0.0125x elapsed=0:06:05.89    \nframe=  277 fps=0.8 q=51.0 size=    1024KiB time=00:00:04.58 bitrate=1830.3kbits/s speed=0.0125x elapsed=0:06:06.41    \nframe=  277 fps=0.8 q=51.0 size=    1024KiB time=00:00:04.58 bitrate=1830.3kbits/s speed=0.0125x elapsed=0:06:06.96    \nframe=  277 fps=0.8 q=51.0 size=    1024KiB time=00:00:04.58 bitrate=1830.3kbits/s speed=0.0125x elapsed=0:06:07.48    \nframe=  278 fps=0.8 q=51.0 size=    1024KiB time=00:00:04.60 bitrate=1823.7kbits/s speed=0.0125x elapsed=0:06:08.01    \nframe=  279 fps=0.8 q=51.0 size=    1024KiB time=00:00:04.61 bitrate=1817.1kbits/s speed=0.0125x elapsed=0:06:08.53    \nframe=  279 fps=0.8 q=51.0 size=    1024KiB time=00:00:04.61 bitrate=1817.1kbits/s speed=0.0125x elapsed=0:06:09.07    \nframe=  280 fps=0.8 q=51.0 size=    1024KiB time=00:00:04.63 bitrate=1810.6kbits/s speed=0.0125x elapsed=0:06:09.60    \nframe=  280 fps=0.8 q=51.0 size=    1024KiB time=00:00:04.63 bitrate=1810.6kbits/s speed=0.0125x elapsed=0:06:10.12    \nframe=  281 fps=0.8 q=51.0 size=    1024KiB time=00:00:04.65 bitrate=1804.1kbits/s speed=0.0125x elapsed=0:06:10.64    \nframe=  281 fps=0.8 q=51.0 size=    1024KiB time=00:00:04.65 bitrate=1804.1kbits/s speed=0.0125x elapsed=0:06:11.18    \nframe=  281 fps=0.8 q=51.0 size=    1024KiB time=00:00:04.65 bitrate=1804.1kbits/s speed=0.0125x elapsed=0:06:11.69    \nframe=  281 fps=0.8 q=51.0 size=    1024KiB time=00:00:04.65 bitrate=1804.1kbits/s speed=0.0125x elapsed=0:06:12.24    \nframe=  282 fps=0.8 q=51.0 size=    1024KiB time=00:00:04.66 bitrate=1797.6kbits/s speed=0.0125x elapsed=0:06:12.76    \nframe=  282 fps=0.8 q=51.0 size=    1024KiB time=00:00:04.66 bitrate=1797.6kbits/s speed=0.0125x elapsed=0:06:13.30    \nframe=  283 fps=0.8 q=51.0 size=    1024KiB time=00:00:04.68 bitrate=1791.2kbits/s speed=0.0125x elapsed=0:06:13.85    \nframe=  283 fps=0.8 q=51.0 size=    1024KiB time=00:00:04.68 bitrate=1791.2kbits/s speed=0.0125x elapsed=0:06:14.40    \nframe=  285 fps=0.8 q=51.0 size=    1024KiB time=00:00:04.71 bitrate=1778.6kbits/s speed=0.0126x elapsed=0:06:14.94    \nframe=  285 fps=0.8 q=51.0 size=    1024KiB time=00:00:04.71 bitrate=1778.6kbits/s speed=0.0126x elapsed=0:06:15.49    \nframe=  285 fps=0.8 q=51.0 size=    1024KiB time=00:00:04.71 bitrate=1778.6kbits/s speed=0.0125x elapsed=0:06:16.03    \nframe=  285 fps=0.8 q=51.0 size=    1024KiB time=00:00:04.71 bitrate=1778.6kbits/s speed=0.0125x elapsed=0:06:16.56    \nframe=  286 fps=0.8 q=51.0 size=    1024KiB time=00:00:04.71 bitrate=1778.6kbits/s speed=0.0125x elapsed=0:06:17.08    \nframe=  286 fps=0.8 q=51.0 size=    1024KiB time=00:00:04.73 bitrate=1772.3kbits/s speed=0.0125x elapsed=0:06:17.63    \nframe=  286 fps=0.8 q=51.0 size=    1024KiB time=00:00:04.73 bitrate=1772.3kbits/s speed=0.0125x elapsed=0:06:18.16    \nframe=  288 fps=0.8 q=51.0 size=    1024KiB time=00:00:04.76 bitrate=1759.9kbits/s speed=0.0126x elapsed=0:06:18.68    \nframe=  288 fps=0.8 q=51.0 size=    1024KiB time=00:00:04.76 bitrate=1759.9kbits/s speed=0.0126x elapsed=0:06:19.22    \nframe=  288 fps=0.8 q=51.0 size=    1024KiB time=00:00:04.76 bitrate=1759.9kbits/s speed=0.0126x elapsed=0:06:19.72    \nframe=  288 fps=0.8 q=51.0 size=    1024KiB time=00:00:04.76 bitrate=1759.9kbits/s speed=0.0125x elapsed=0:06:20.25    \nframe=  288 fps=0.8 q=51.0 size=    1024KiB time=00:00:04.76 bitrate=1759.9kbits/s speed=0.0125x elapsed=0:06:20.77    \nframe=  288 fps=0.8 q=51.0 size=    1024KiB time=00:00:04.76 bitrate=1759.9kbits/s speed=0.0125x elapsed=0:06:21.29    \nframe=  288 fps=0.8 q=51.0 size=    1024KiB time=00:00:04.76 bitrate=1759.9kbits/s speed=0.0125x elapsed=0:06:21.81    \nframe=  288 fps=0.8 q=51.0 size=    1024KiB time=00:00:04.76 bitrate=1759.9kbits/s speed=0.0125x elapsed=0:06:22.31    \nframe=  290 fps=0.8 q=51.0 size=    1024KiB time=00:00:04.80 bitrate=1747.7kbits/s speed=0.0125x elapsed=0:06:22.84    \nframe=  290 fps=0.8 q=51.0 size=    1024KiB time=00:00:04.80 bitrate=1747.7kbits/s speed=0.0125x elapsed=0:06:23.36    \nframe=  291 fps=0.8 q=51.0 size=    1024KiB time=00:00:04.81 bitrate=1741.7kbits/s speed=0.0125x elapsed=0:06:23.88    \nframe=  292 fps=0.8 q=51.0 size=    1024KiB time=00:00:04.83 bitrate=1735.6kbits/s speed=0.0126x elapsed=0:06:24.44    \nframe=  292 fps=0.8 q=51.0 size=    1024KiB time=00:00:04.83 bitrate=1735.6kbits/s speed=0.0126x elapsed=0:06:24.98    \nframe=  292 fps=0.8 q=51.0 size=    1024KiB time=00:00:04.83 bitrate=1735.6kbits/s speed=0.0125x elapsed=0:06:25.52    \nframe=  293 fps=0.8 q=51.0 size=    1024KiB time=00:00:04.85 bitrate=1729.7kbits/s speed=0.0126x elapsed=0:06:26.06    \nframe=  294 fps=0.8 q=51.0 size=    1024KiB time=00:00:04.86 bitrate=1723.8kbits/s speed=0.0126x elapsed=0:06:26.58    \nframe=  295 fps=0.8 q=51.0 size=    1024KiB time=00:00:04.88 bitrate=1717.9kbits/s speed=0.0126x elapsed=0:06:27.12    \nframe=  296 fps=0.8 q=51.0 size=    1024KiB time=00:00:04.90 bitrate=1712.0kbits/s speed=0.0126x elapsed=0:06:27.66    \nframe=  296 fps=0.8 q=51.0 size=    1024KiB time=00:00:04.90 bitrate=1712.0kbits/s speed=0.0126x elapsed=0:06:28.16    \nframe=  296 fps=0.8 q=51.0 size=    1024KiB time=00:00:04.90 bitrate=1712.0kbits/s speed=0.0126x elapsed=0:06:28.69    \nframe=  296 fps=0.8 q=51.0 size=    1024KiB time=00:00:04.90 bitrate=1712.0kbits/s speed=0.0126x elapsed=0:06:29.21    \nframe=  296 fps=0.8 q=51.0 size=    1024KiB time=00:00:04.90 bitrate=1712.0kbits/s speed=0.0126x elapsed=0:06:29.74    \nframe=  297 fps=0.8 q=51.0 size=    1024KiB time=00:00:04.91 bitrate=1706.2kbits/s speed=0.0126x elapsed=0:06:30.29    \nframe=  297 fps=0.8 q=51.0 size=    1024KiB time=00:00:04.91 bitrate=1706.2kbits/s speed=0.0126x elapsed=0:06:30.84    \nframe=  297 fps=0.8 q=51.0 size=    1024KiB time=00:00:04.91 bitrate=1706.2kbits/s speed=0.0126x elapsed=0:06:31.49    \nframe=  297 fps=0.8 q=51.0 size=    1024KiB time=00:00:04.91 bitrate=1706.2kbits/s speed=0.0125x elapsed=0:06:32.12    \nframe=  297 fps=0.8 q=51.0 size=    1024KiB time=00:00:04.91 bitrate=1706.2kbits/s speed=0.0125x elapsed=0:06:32.74    \nframe=  297 fps=0.8 q=51.0 size=    1024KiB time=00:00:04.91 bitrate=1706.2kbits/s speed=0.0125x elapsed=0:06:33.32    \nframe=  297 fps=0.8 q=51.0 size=    1024KiB time=00:00:04.91 bitrate=1706.2kbits/s speed=0.0125x elapsed=0:06:33.88    \nframe=  299 fps=0.8 q=51.0 size=    1024KiB time=00:00:04.95 bitrate=1694.7kbits/s speed=0.0125x elapsed=0:06:34.47    \nframe=  299 fps=0.8 q=51.0 size=    1024KiB time=00:00:04.95 bitrate=1694.7kbits/s speed=0.0125x elapsed=0:06:35.05    \nframe=  299 fps=0.8 q=51.0 size=    1024KiB time=00:00:04.95 bitrate=1694.7kbits/s speed=0.0125x elapsed=0:06:35.65    \n[mp4 @ 000001b6cfb67ac0] Starting second pass: moving the moov atom to the beginning of the file\n[out#0/mp4 @ 000001b6cfadab40] video:1268KiB audio:0KiB subtitle:0KiB other streams:0KiB global headers:2KiB muxing overhead: 0.552993%\nframe=  300 fps=0.8 q=51.0 Lsize=    1275KiB time=00:00:04.96 bitrate=2102.3kbits/s speed=0.0125x elapsed=0:06:36.01    \nx265 [info]: frame I:      2, Avg QP:50.82  kb/s: 2625.60 \nx265 [info]: frame P:     71, Avg QP:51.00  kb/s: 2973.11 \nx265 [info]: frame B:    227, Avg QP:51.00  kb/s: 1789.14 \nx265 [info]: Weighted P-Frames: Y:81.7% UV:71.8%\n\nencoded 300 frames in 395.41s (0.76 fps), 2074.92 kb/s, Avg QP:51.00\n",
  "seconds": 396.5819115638733,
  "probe_out": {}
}